<svg width="36" height="37" viewBox="0 0 36 37" fill="none" xmlns="http://www.w3.org/2000/svg">
<path d="M14.3267 25.0482C14.1667 24.4278 13.8433 23.8617 13.3903 23.4087C12.9372 22.9556 12.3711 22.6323 11.7507 22.4722L0.753128 19.6363C0.565498 19.5831 0.400361 19.4701 0.282772 19.3145C0.165184 19.1589 0.101562 18.9691 0.101562 18.7741C0.101562 18.5791 0.165184 18.3893 0.282772 18.2337C0.400361 18.0781 0.565498 17.9651 0.753128 17.9119L11.7507 15.0742C12.3709 14.9143 12.9369 14.5912 13.3899 14.1385C13.8429 13.6858 14.1664 13.12 14.3267 12.5L17.1626 1.5024C17.2153 1.31403 17.3282 1.14808 17.484 1.02986C17.6399 0.911646 17.8301 0.847656 18.0257 0.847656C18.2213 0.847656 18.4116 0.911646 18.5674 1.02986C18.7233 1.14808 18.8361 1.31403 18.8889 1.5024L21.723 12.5C21.883 13.1204 22.2064 13.6865 22.6594 14.1395C23.1124 14.5926 23.6786 14.9159 24.2989 15.076L35.2965 17.9101C35.4857 17.9622 35.6524 18.075 35.7713 18.2311C35.8901 18.3872 35.9545 18.5779 35.9545 18.7741C35.9545 18.9703 35.8901 19.161 35.7713 19.3171C35.6524 19.4732 35.4857 19.586 35.2965 19.6381L24.2989 22.4722C23.6786 22.6323 23.1124 22.9556 22.6594 23.4087C22.2064 23.8617 21.883 24.4278 21.723 25.0482L18.8871 36.0458C18.8344 36.2342 18.7215 36.4001 18.5656 36.5183C18.4098 36.6366 18.2195 36.7006 18.0239 36.7006C17.8283 36.7006 17.6381 36.6366 17.4822 36.5183C17.3264 36.4001 17.2135 36.2342 17.1608 36.0458L14.3267 25.0482Z" fill="#14CF93"/>
</svg>
