<svg width="87" height="87" viewBox="0 0 87 87" fill="none" xmlns="http://www.w3.org/2000/svg">
<path d="M23.5977 8.4657C26.7877 8.4657 29.4167 8.6618 31.5332 9.19226C33.6975 9.7347 35.541 10.6818 36.8662 12.3251C38.1578 13.9266 38.6672 15.8371 38.9024 17.702C39.1346 19.5436 39.1358 21.7083 39.1358 24.0038C39.1358 26.2887 39.1435 28.4527 38.9248 30.286C38.7034 32.1426 38.2128 34.0597 36.9287 35.6698C35.6087 37.3251 33.7608 38.2742 31.5899 38.8163C29.4669 39.3464 26.8206 39.5419 23.5977 39.5419C20.3748 39.5419 17.7285 39.3464 15.6055 38.8163C13.4347 38.2742 11.5867 37.325 10.2666 35.6698C8.98268 34.0597 8.49299 32.1425 8.27151 30.286C8.05281 28.4527 8.0596 26.2887 8.0596 24.0038C8.0596 21.7083 8.06082 19.5436 8.293 17.702C8.52812 15.8371 9.03767 13.9266 10.3291 12.3251C11.6544 10.6818 13.498 9.73471 15.6621 9.19226C17.7787 8.66178 20.4076 8.4657 23.5977 8.4657Z" stroke="white" stroke-width="6" stroke-linecap="round" stroke-linejoin="round"/>
<path d="M63.0036 8.4657C66.1936 8.4657 68.8226 8.6618 70.9391 9.19226C73.1034 9.7347 74.9469 10.6818 76.2721 12.3251C77.5637 13.9266 78.0731 15.8371 78.3083 17.702C78.5405 19.5436 78.5417 21.7083 78.5417 24.0038C78.5417 26.2887 78.5494 28.4527 78.3307 30.286C78.1093 32.1426 77.6187 34.0597 76.3346 35.6698C75.0145 37.3251 73.1667 38.2742 70.9958 38.8163C68.8728 39.3464 66.2265 39.5419 63.0036 39.5419C59.7807 39.5419 57.1344 39.3464 55.0114 38.8163C52.8406 38.2742 50.9926 37.325 49.6725 35.6698C48.3886 34.0597 47.8989 32.1425 47.6774 30.286C47.4587 28.4527 47.4655 26.2887 47.4655 24.0038C47.4655 21.7083 47.4667 19.5436 47.6989 17.702C47.934 15.8371 48.4436 13.9266 49.735 12.3251C51.0603 10.6818 52.9039 9.73471 55.068 9.19226C57.1846 8.66178 59.8135 8.4657 63.0036 8.4657Z" stroke="#14CF93" stroke-width="6" stroke-linecap="round" stroke-linejoin="round"/>
<path d="M23.5977 47.8719C26.7877 47.8719 29.4167 48.068 31.5332 48.5985C33.6975 49.141 35.541 50.088 36.8662 51.7313C38.1578 53.3329 38.6672 55.2433 38.9024 57.1083C39.1346 58.9498 39.1358 61.1146 39.1358 63.41C39.1358 65.6949 39.1435 67.8589 38.9248 69.6923C38.7034 71.5488 38.2128 73.4659 36.9287 75.076C35.6087 76.7313 33.7608 77.6805 31.5899 78.2225C29.4669 78.7526 26.8206 78.9481 23.5977 78.9481C20.3748 78.9481 17.7285 78.7526 15.6055 78.2225C13.4347 77.6804 11.5867 76.7313 10.2666 75.076C8.98268 73.466 8.49299 71.5487 8.27151 69.6923C8.05281 67.8589 8.0596 65.6949 8.0596 63.41C8.0596 61.1146 8.06082 58.9498 8.293 57.1083C8.52812 55.2434 9.03767 53.3328 10.3291 51.7313C11.6544 50.0881 13.498 49.141 15.6621 48.5985C17.7787 48.068 20.4076 47.872 23.5977 47.8719Z" stroke="white" stroke-width="6" stroke-linecap="round" stroke-linejoin="round"/>
<path d="M63.0036 47.8719C66.1936 47.8719 68.8226 48.068 70.9391 48.5985C73.1034 49.141 74.9469 50.088 76.2721 51.7313C77.5637 53.3329 78.0731 55.2433 78.3083 57.1083C78.5405 58.9498 78.5417 61.1146 78.5417 63.41C78.5417 65.6949 78.5494 67.8589 78.3307 69.6923C78.1093 71.5488 77.6187 73.4659 76.3346 75.076C75.0145 76.7313 73.1667 77.6805 70.9958 78.2225C68.8728 78.7526 66.2265 78.9481 63.0036 78.9481C59.7807 78.9481 57.1344 78.7526 55.0114 78.2225C52.8406 77.6804 50.9926 76.7313 49.6725 75.076C48.3886 73.466 47.8989 71.5487 47.6774 69.6923C47.4587 67.8589 47.4655 65.6949 47.4655 63.41C47.4655 61.1146 47.4667 58.9498 47.6989 57.1083C47.934 55.2434 48.4436 53.3328 49.735 51.7313C51.0603 50.0881 52.9039 49.141 55.068 48.5985C57.1846 48.068 59.8135 47.872 63.0036 47.8719Z" stroke="white" stroke-width="6" stroke-linecap="round" stroke-linejoin="round"/>
</svg>
