<svg width="101" height="101" viewBox="0 0 101 101" fill="none" xmlns="http://www.w3.org/2000/svg">
<path d="M74.7432 46.1154C80.5538 45.299 85.0274 40.3172 85.0399 34.2816C85.0399 28.3335 80.7038 23.4017 75.0181 22.4686" stroke="#14CF93" stroke-width="6" stroke-linecap="round" stroke-linejoin="round"/>
<path d="M82.4106 60.084C88.038 60.9254 91.9659 62.8956 91.9659 66.9568C91.9659 69.7518 90.1165 71.5679 87.1258 72.7092" stroke="#14CF93" stroke-width="6" stroke-linecap="round" stroke-linejoin="round"/>
<path fill-rule="evenodd" clip-rule="evenodd" d="M49.7467 61.8068C36.3592 61.8068 24.9253 63.8353 24.9253 71.9369C24.9253 80.0344 36.2884 82.1212 49.7467 82.1212C63.1342 82.1212 74.5639 80.1135 74.5639 72.0077C74.5639 63.9019 63.205 61.8068 49.7467 61.8068Z" stroke="white" stroke-width="6" stroke-linecap="round" stroke-linejoin="round"/>
<path fill-rule="evenodd" clip-rule="evenodd" d="M49.7466 50.2439C58.5314 50.2439 65.6542 43.1253 65.6542 34.3364C65.6542 25.5516 58.5314 18.4288 49.7466 18.4288C40.9619 18.4288 33.8391 25.5516 33.8391 34.3364C33.8058 43.092 40.8744 50.2147 49.63 50.2439H49.7466Z" stroke="white" stroke-width="6" stroke-linecap="round" stroke-linejoin="round"/>
<path d="M24.7466 46.1154C18.9318 45.299 14.4623 40.3172 14.4498 34.2816C14.4498 28.3335 18.786 23.4017 24.4717 22.4686" stroke="#14CF93" stroke-width="6" stroke-linecap="round" stroke-linejoin="round"/>
<path d="M17.0786 60.084C11.4512 60.9254 7.52325 62.8956 7.52325 66.9568C7.52325 69.7518 9.37268 71.5679 12.3634 72.7092" stroke="#14CF93" stroke-width="6" stroke-linecap="round" stroke-linejoin="round"/>
</svg>
