<svg width="125" height="35" viewBox="0 0 125 35" fill="none" xmlns="http://www.w3.org/2000/svg">
<g clip-path="url(#clip0_11_339)">
<g clip-path="url(#clip1_11_339)">
<path d="M31.7905 22.5698C33.1802 22.5698 34.3724 22.0681 35.3671 21.0647C36.3765 20.0613 36.8738 18.8513 36.8738 17.4347C36.8738 16.0329 36.3765 14.8303 35.3671 13.8268C34.3724 12.8087 33.1802 12.2996 31.7905 12.2996C30.3863 12.2996 29.1868 12.8087 28.1921 13.8268C27.1973 14.8303 26.7 16.0329 26.7 17.4347C26.7 18.8513 27.1973 20.0613 28.1921 21.0647C29.1868 22.0681 30.3863 22.5698 31.7905 22.5698ZM31.7905 27.7049C28.982 27.7049 26.583 26.7015 24.5935 24.6947C22.6041 22.6879 21.6094 20.2679 21.6094 17.4347C21.6094 14.6163 22.6041 12.2037 24.5935 10.1969C26.583 8.18269 28.982 7.17188 31.7905 7.17188C34.5846 7.17188 36.9763 8.18269 38.9657 10.1969C40.9624 12.2037 41.9644 14.6163 41.9644 17.4347C41.9644 20.2679 40.9624 22.6879 38.9657 24.6947C36.9763 26.7015 34.5846 27.7049 31.7905 27.7049Z" fill="#FEFEFE"/>
<path d="M43.1523 27.7049V22.5698H53.3262C54.7158 22.5698 55.908 22.0681 56.903 21.0647C57.912 20.0613 58.4168 18.8513 58.4168 17.4347C58.4168 16.0329 57.912 14.8303 56.903 13.8268C55.908 12.8087 54.7158 12.2996 53.3262 12.2996H48.2356V20.5482H43.1523V7.17188H53.3262C56.1202 7.17188 58.512 8.18269 60.5011 10.1969C62.5055 12.2037 63.5072 14.6163 63.5072 17.4347C63.5072 20.2679 62.5055 22.6879 60.5011 24.6947C58.512 26.7015 56.1202 27.7049 53.3262 27.7049H43.1523Z" fill="#FEFEFE"/>
<path d="M74.9274 20.0023V14.8671H85.1013V20.0023H74.9274ZM74.9274 27.7049C72.1185 27.7049 69.7197 26.7015 67.7301 24.6947C65.7409 22.6879 64.7461 20.2679 64.7461 17.4347C64.7461 14.6163 65.7409 12.2037 67.7301 10.1969C69.7197 8.18269 72.1185 7.17188 74.9274 7.17188H85.1013V12.307H74.9274C73.5229 12.307 72.3236 12.8087 71.3287 13.8268C70.3339 14.8303 69.837 16.0329 69.837 17.4347C69.837 18.8513 70.3339 20.0613 71.3287 21.0647C72.3236 22.0681 73.5229 22.5698 74.9274 22.5698H85.1013V27.7049H74.9274Z" fill="#FEFEFE"/>
<path d="M10.2402 27.7049C7.43167 27.7049 5.03265 26.7015 3.05054 24.6947C1.06112 22.6879 0.0664062 20.2679 0.0664062 17.4347C0.0664062 14.6163 1.06112 12.2037 3.05054 10.1969C5.03265 8.18269 7.43167 7.17188 10.2402 7.17188H24.4953L20.4214 12.307H10.2402C8.83596 12.307 7.63648 12.8087 6.64175 13.8268C5.65435 14.8303 5.15699 16.0329 5.15699 17.4347C5.15699 18.8513 5.65435 20.0613 6.64175 21.0647C7.63648 22.0681 8.83596 22.5698 10.2402 22.5698H20.4214L24.9489 27.7049H10.2402Z" fill="#FEFEFE"/>
<path d="M88.4531 20.0023H93.5214V14.8672H88.4531V20.0023Z" fill="#14CF93"/>
<path d="M123.821 34.0027C119.286 34.0027 115.417 32.3869 112.213 29.148C109.003 25.9164 107.401 22.0135 107.401 17.4391C107.401 12.8942 109.003 8.99865 112.213 5.76706C115.417 2.50598 119.286 0.882812 123.821 0.882812V9.16096C121.553 9.16096 119.615 9.97988 118.013 11.6178C116.412 13.2336 115.607 15.174 115.607 17.4391C115.607 19.7263 116.412 21.6815 118.013 23.2972C119.615 24.913 121.553 25.7172 123.821 25.7172V34.0027ZM90.9805 34.0027V25.7172C93.2262 25.7172 95.1496 24.913 96.7586 23.2972C98.3823 21.6815 99.1942 19.7263 99.1942 17.4391C99.1942 15.174 98.3823 13.2336 96.7586 11.6178C95.1496 9.97988 93.2262 9.16096 90.9805 9.16096V0.882812C95.4935 0.882812 99.3551 2.50598 102.559 5.76706C105.784 8.99865 107.401 12.8942 107.401 17.4391C107.401 22.0135 105.784 25.9164 102.559 29.148C99.3551 32.3869 95.4935 34.0027 90.9805 34.0027Z" fill="#00A570"/>
<path d="M25.7712 33.4004C25.7639 33.393 25.7566 33.3783 25.7566 33.3635C25.7566 33.3488 25.7639 33.334 25.7712 33.3119C25.8297 33.1569 25.9175 32.8987 26.0491 32.5446C26.1808 32.183 26.2832 31.8806 26.3783 31.6223C26.3856 31.6002 26.3929 31.5854 26.4075 31.5707C26.4222 31.5559 26.4441 31.5559 26.4733 31.5559H26.861C26.9122 31.5559 26.9488 31.578 26.978 31.6223C27.1536 32.124 27.2487 32.397 27.2706 32.456C27.2852 32.4929 27.2925 32.5077 27.2925 32.5077C27.3072 32.5077 27.3145 32.4929 27.3218 32.456C27.351 32.2421 27.4022 31.9396 27.4608 31.5486C27.5193 31.1575 27.5631 30.8771 27.5924 30.7001C27.5924 30.678 27.6071 30.6632 27.6144 30.6558C27.629 30.6484 27.6436 30.6484 27.6656 30.6484H28.0605C28.0751 30.6484 28.0897 30.6558 28.0971 30.678C28.1044 30.6927 28.1044 30.7148 28.0971 30.737L27.629 33.3635C27.6217 33.4004 27.5997 33.4152 27.5558 33.4152H27.1389C27.117 33.4152 27.1024 33.4152 27.0878 33.4078C27.0731 33.4004 27.0658 33.3857 27.0585 33.3635C27.0219 33.2602 26.9634 33.0758 26.883 32.8323C26.8025 32.5815 26.7367 32.3896 26.7001 32.2568C26.6928 32.2421 26.6928 32.2347 26.6855 32.2347C26.6782 32.2347 26.6708 32.2421 26.6635 32.2568L26.2978 33.3635C26.2905 33.4004 26.2685 33.4152 26.2247 33.4152H25.8005C25.7932 33.4152 25.7785 33.4152 25.7712 33.4004ZM25.5737 32.4708C25.5664 32.4708 25.5591 32.4634 25.5591 32.4413L25.23 30.737C25.2227 30.7296 25.2227 30.7222 25.2227 30.7074C25.2227 30.6632 25.2373 30.6484 25.2739 30.6484H25.6615C25.7054 30.6484 25.7273 30.6632 25.7346 30.7001L25.9028 31.6297C25.9028 31.6371 25.9028 31.6444 25.9028 31.6666C25.9028 31.7109 25.9028 31.7551 25.8882 31.7847C25.859 31.851 25.8151 31.9543 25.7493 32.1019C25.6834 32.2495 25.6323 32.3675 25.603 32.4486C25.5957 32.4634 25.5884 32.4708 25.5737 32.4708Z" fill="#14CF93"/>
<path d="M30.2759 33.3861C30.2613 33.3714 30.2539 33.3492 30.2539 33.3345V30.73C30.2539 30.7079 30.2613 30.6932 30.2759 30.6784C30.2905 30.6636 30.3051 30.6562 30.327 30.6562H32.0825C32.1044 30.6562 32.119 30.6636 32.1336 30.6784C32.1482 30.6932 32.1556 30.7079 32.1556 30.73V31.0621C32.1556 31.0768 32.1482 31.0989 32.1336 31.1137C32.119 31.1285 32.1044 31.1358 32.0825 31.1358H30.8171C30.7952 31.1358 30.7806 31.1432 30.7659 31.1506C30.7513 31.1653 30.744 31.1801 30.744 31.2022V31.7998C30.744 31.822 30.7513 31.8368 30.7586 31.8441C30.7733 31.8589 30.7952 31.8589 30.839 31.8589H31.8118C31.8338 31.8589 31.8484 31.8662 31.863 31.881C31.8777 31.8884 31.885 31.9032 31.885 31.9253V32.2573C31.885 32.2794 31.8777 32.2942 31.863 32.3015C31.8484 32.3163 31.8338 32.3237 31.8118 32.3237H30.8317C30.7952 32.3237 30.7733 32.3311 30.7659 32.3532C30.7513 32.3754 30.744 32.3901 30.744 32.4122V32.8328C30.744 32.8549 30.7513 32.8844 30.7659 32.8992C30.7806 32.9213 30.8098 32.9287 30.8537 32.9287H32.1117C32.1263 32.9287 32.1409 32.9361 32.1556 32.9508C32.1702 32.9656 32.1775 32.9804 32.1775 33.0025V33.3345C32.1775 33.3492 32.1702 33.3714 32.1629 33.3861C32.1482 33.4009 32.1263 33.4083 32.1117 33.4083H30.327C30.3051 33.4083 30.2905 33.4009 30.2759 33.3861Z" fill="#14CF93"/>
<path d="M35.4385 32.9508C35.5335 32.9508 35.614 32.9213 35.6798 32.8549C35.7456 32.7885 35.7749 32.7074 35.7749 32.6041C35.7749 32.5081 35.7456 32.427 35.6798 32.3606C35.614 32.2942 35.5335 32.2647 35.4385 32.2647H34.9191C34.8533 32.2647 34.8167 32.2942 34.8167 32.3606V32.8549C34.8167 32.9213 34.8533 32.9582 34.9191 32.9582L35.4385 32.9508ZM35.1971 31.7998C35.2848 31.7998 35.3653 31.7704 35.4311 31.7039C35.4969 31.6302 35.5262 31.5564 35.5262 31.4605C35.5262 31.3645 35.4896 31.2834 35.4238 31.217C35.358 31.1506 35.2775 31.1211 35.1898 31.1211H34.8972C34.846 31.1211 34.8167 31.1506 34.8167 31.2244V31.7039C34.8167 31.7704 34.8533 31.7998 34.9191 31.7998H35.1971ZM34.3633 33.3345V30.7374C34.3633 30.7005 34.3706 30.6858 34.3779 30.671C34.3925 30.6636 34.4144 30.6562 34.451 30.6562H35.1898C35.3287 30.6562 35.4604 30.6932 35.5847 30.7669C35.7017 30.8407 35.8042 30.9366 35.8699 31.0547C35.9431 31.1801 35.9797 31.3129 35.9797 31.4605C35.9797 31.6228 35.9358 31.763 35.8553 31.8884C35.987 31.9695 36.0894 32.0728 36.1626 32.1983C36.243 32.3237 36.2795 32.4565 36.2795 32.6041C36.2795 32.7516 36.243 32.8844 36.1699 33.0098C36.104 33.1279 36.0089 33.2312 35.8846 33.2976C35.7603 33.3714 35.6286 33.4083 35.4823 33.4083L34.4657 33.4157C34.3998 33.4157 34.3633 33.3861 34.3633 33.3345Z" fill="#14CF93"/>
<path d="M42.5857 32.8844C42.7393 32.8844 42.8856 32.8475 43.0099 32.7664C43.1416 32.6926 43.2513 32.5893 43.3244 32.4565C43.4049 32.3237 43.4415 32.1835 43.4415 32.0286C43.4415 31.8736 43.4049 31.7261 43.3244 31.5932C43.2513 31.4678 43.1416 31.3572 43.0099 31.2834C42.8856 31.2022 42.7393 31.1653 42.5857 31.1653H42.2712C42.2566 31.1653 42.2493 31.1727 42.2419 31.1801C42.2273 31.1875 42.2273 31.2022 42.2273 31.2096V32.8844H42.5857ZM41.7519 33.3566C41.73 33.3345 41.7227 33.3124 41.7227 33.2754V30.7448C41.7227 30.7226 41.73 30.7005 41.7446 30.6784C41.7593 30.6636 41.7812 30.6562 41.8031 30.6562H42.5857C42.8344 30.6562 43.0612 30.7153 43.2659 30.8407C43.4707 30.9588 43.639 31.1285 43.756 31.3424C43.8803 31.549 43.9388 31.7777 43.9388 32.0286C43.9388 32.2721 43.8803 32.5008 43.756 32.7147C43.639 32.9213 43.4707 33.091 43.2659 33.2091C43.0612 33.3345 42.8344 33.3935 42.5857 33.3935H41.8324C41.8031 33.3935 41.7739 33.3861 41.7519 33.3566Z" fill="#14CF93"/>
<path d="M46.0415 33.3861C46.0268 33.3714 46.0195 33.3492 46.0195 33.3345V30.73C46.0195 30.7079 46.0268 30.6932 46.0415 30.6784C46.0561 30.6636 46.0707 30.6562 46.0853 30.6562H47.8407C47.8627 30.6562 47.8773 30.6636 47.8919 30.6784C47.9065 30.6932 47.9138 30.7079 47.9138 30.73V31.0621C47.9138 31.0768 47.9065 31.0989 47.8919 31.1137C47.8773 31.1285 47.8627 31.1358 47.8407 31.1358H46.5754C46.5607 31.1358 46.5461 31.1432 46.5315 31.1506C46.5168 31.1653 46.5095 31.1801 46.5095 31.2022V31.7998C46.5095 31.822 46.5095 31.8368 46.5241 31.8441C46.5315 31.8589 46.5607 31.8589 46.5973 31.8589H47.5774C47.592 31.8589 47.6066 31.8662 47.6213 31.881C47.6359 31.8884 47.6432 31.9032 47.6432 31.9253V32.2573C47.6432 32.2794 47.6359 32.2942 47.6213 32.3015C47.6066 32.3163 47.592 32.3237 47.5774 32.3237H46.59C46.5607 32.3237 46.5388 32.3311 46.5241 32.3532C46.5095 32.3754 46.5095 32.3901 46.5095 32.4122V32.8328C46.5095 32.8549 46.5168 32.8844 46.5315 32.8992C46.5461 32.9213 46.5754 32.9287 46.6193 32.9287H47.87C47.8846 32.9287 47.9065 32.9361 47.9212 32.9508C47.9358 32.9656 47.9431 32.9804 47.9431 33.0025V33.3345C47.9431 33.3492 47.9358 33.3714 47.9212 33.3861C47.9065 33.4009 47.8919 33.4083 47.87 33.4083H46.0853C46.0707 33.4083 46.0561 33.4009 46.0415 33.3861Z" fill="#14CF93"/>
<path d="M52.1778 30.7001C52.1778 30.7148 52.1778 30.7296 52.1705 30.737L51.461 33.3635C51.4537 33.3857 51.4464 33.4004 51.4317 33.4078C51.4171 33.4152 51.4025 33.4152 51.3732 33.4152H50.8905C50.8686 33.4152 50.8466 33.4152 50.832 33.4078C50.8173 33.4004 50.81 33.3857 50.8027 33.3635L50.0932 30.737C50.0932 30.7296 50.0859 30.7148 50.0859 30.7001C50.0859 30.6632 50.1079 30.6484 50.1372 30.6484H50.4955C50.5248 30.6484 50.5467 30.6484 50.5613 30.6558C50.576 30.6632 50.5833 30.678 50.5906 30.7001C50.6418 30.8845 50.7223 31.1944 50.8393 31.615C50.949 32.0429 51.0368 32.3675 51.1026 32.5962C51.1099 32.6479 51.1245 32.67 51.1318 32.67C51.1391 32.67 51.1538 32.6479 51.1611 32.5962C51.2196 32.3675 51.3074 32.0429 51.4244 31.615C51.5414 31.1944 51.6219 30.8845 51.6731 30.7001C51.6804 30.678 51.6877 30.6632 51.7023 30.6558C51.717 30.6484 51.7389 30.6484 51.7682 30.6484H52.1266C52.1631 30.6484 52.1778 30.6632 52.1778 30.7001Z" fill="#14CF93"/>
<path d="M54.3384 33.3861C54.3237 33.3714 54.3164 33.3492 54.3164 33.3345V30.73C54.3164 30.7079 54.3237 30.6932 54.3384 30.6784C54.353 30.6636 54.3676 30.6562 54.3895 30.6562H56.1449C56.1669 30.6562 56.1815 30.6636 56.1961 30.6784C56.2107 30.6932 56.2181 30.7079 56.2181 30.73V31.0621C56.2181 31.0768 56.2107 31.0989 56.1961 31.1137C56.1815 31.1285 56.1669 31.1358 56.1449 31.1358H54.8796C54.8577 31.1358 54.843 31.1432 54.8284 31.1506C54.8138 31.1653 54.8065 31.1801 54.8065 31.2022V31.7998C54.8065 31.822 54.8138 31.8368 54.8211 31.8441C54.8357 31.8589 54.8577 31.8589 54.9015 31.8589H55.8743C55.8963 31.8589 55.9109 31.8662 55.9255 31.881C55.9402 31.8884 55.9475 31.9032 55.9475 31.9253V32.2573C55.9475 32.2794 55.9402 32.2942 55.9255 32.3015C55.9109 32.3163 55.8963 32.3237 55.8743 32.3237H54.8942C54.8577 32.3237 54.8357 32.3311 54.8284 32.3532C54.8138 32.3754 54.8065 32.3901 54.8065 32.4122V32.8328C54.8065 32.8549 54.8138 32.8844 54.8284 32.8992C54.843 32.9213 54.8723 32.9287 54.9161 32.9287H56.1742C56.1888 32.9287 56.2034 32.9361 56.2181 32.9508C56.2327 32.9656 56.24 32.9804 56.24 33.0025V33.3345C56.24 33.3492 56.2327 33.3714 56.2254 33.3861C56.2107 33.4009 56.1888 33.4083 56.1742 33.4083H54.3895C54.3676 33.4083 54.353 33.4009 54.3384 33.3861Z" fill="#14CF93"/>
<path d="M58.5138 33.393C58.4917 33.3783 58.4844 33.3562 58.4844 33.334V30.7296C58.4844 30.7074 58.4917 30.6927 58.5138 30.6706C58.5286 30.6558 58.5501 30.6484 58.5648 30.6484H58.9744C58.9965 30.6484 59.0113 30.6558 59.0328 30.6706C59.0475 30.6927 59.0549 30.7074 59.0549 30.7296V32.8102C59.0549 32.8323 59.0622 32.8545 59.077 32.8692C59.0917 32.884 59.1132 32.8987 59.128 32.8987H60.0792C60.1007 32.8987 60.1228 32.9061 60.1375 32.9209C60.1523 32.9356 60.1596 32.9504 60.1596 32.9725V33.334C60.1596 33.3562 60.1523 33.3783 60.1375 33.393C60.1228 33.4078 60.1007 33.4152 60.0792 33.4152H58.5648C58.5501 33.4152 58.5286 33.4078 58.5138 33.393Z" fill="#14CF93"/>
<path d="M64.0272 32.6264C64.0929 32.5452 64.1444 32.4715 64.1807 32.3976C64.2323 32.2722 64.2538 32.1468 64.2538 32.0214C64.2538 31.8517 64.2102 31.6893 64.115 31.5344C64.0198 31.3869 63.8957 31.2688 63.7275 31.195C63.6102 31.1434 63.4861 31.1212 63.3541 31.1212C63.2374 31.1212 63.1275 31.136 63.025 31.1803C62.923 31.2246 62.8278 31.2836 62.74 31.3647L62.6743 31.4385C62.6012 31.527 62.5496 31.6156 62.5134 31.7189C62.4765 31.8222 62.4618 31.9255 62.4618 32.0288C62.4618 32.1615 62.4913 32.287 62.5423 32.405C62.6012 32.5305 62.6816 32.6338 62.7836 32.7149C62.9519 32.8625 63.1496 32.9288 63.3615 32.9288C63.5077 32.9288 63.6397 32.8994 63.7637 32.8403C63.8663 32.7813 63.9541 32.7075 64.0272 32.6264ZM62.323 32.9805C62.1916 32.8329 62.0964 32.6706 62.038 32.4862L62.0307 32.4715C61.9791 32.3239 61.957 32.1763 61.957 32.0288C61.957 31.8664 61.9865 31.7041 62.038 31.5492C62.0964 31.3869 62.1768 31.2467 62.2862 31.1139C62.4329 30.9589 62.5717 30.8409 62.7253 30.7597C62.8714 30.6712 63.0544 30.6269 63.281 30.6122H63.2958C63.515 30.5974 63.7275 30.6416 63.932 30.7302C64.064 30.7892 64.1954 30.8778 64.3127 30.9884C64.4368 31.0991 64.5246 31.2098 64.5756 31.3205C64.7002 31.5344 64.7586 31.7705 64.7586 32.0214C64.7586 32.1689 64.7365 32.3165 64.6929 32.4567C64.6487 32.5968 64.5829 32.7297 64.5025 32.8477C64.4368 32.9436 64.3637 33.0248 64.2832 33.0912C64.2102 33.165 64.115 33.224 64.0051 33.2904C63.8006 33.3937 63.5813 33.4453 63.3541 33.4453C63.157 33.4453 62.9666 33.4011 62.7836 33.3199C62.6012 33.2388 62.4471 33.1207 62.323 32.9805Z" fill="#14CF93"/>
<path d="M67.8512 31.8958C67.9538 31.8958 68.0416 31.8589 68.1146 31.7925C68.1804 31.7187 68.2172 31.6302 68.2172 31.5269C68.2172 31.4309 68.1804 31.3424 68.1146 31.2686C68.0416 31.2022 67.9538 31.1653 67.8512 31.1653H67.4563C67.398 31.1653 67.3611 31.1949 67.3611 31.2465V31.8958H67.8512ZM66.8932 33.3935C66.8785 33.3787 66.8711 33.364 66.8711 33.3492V30.73C66.8711 30.7079 66.8785 30.6858 66.8932 30.6784C66.9079 30.6636 66.9221 30.6562 66.9442 30.6562H67.8512C68.0121 30.6562 68.1583 30.6932 68.2903 30.7743C68.4217 30.8481 68.5243 30.9588 68.6047 31.0916C68.6852 31.2244 68.7214 31.3719 68.7214 31.5269C68.7214 31.6892 68.6852 31.8368 68.6047 31.9695C68.5243 32.1024 68.4217 32.2057 68.2903 32.2868C68.1583 32.3606 68.0121 32.4048 67.8512 32.4048H67.4637C67.4342 32.4048 67.4053 32.4048 67.3906 32.4196C67.3759 32.4344 67.3611 32.4491 67.3611 32.4786V33.3492C67.3611 33.364 67.3612 33.3787 67.3464 33.3935C67.3317 33.4083 67.3175 33.4157 67.2954 33.4157H66.9442C66.9221 33.4157 66.9079 33.4083 66.8932 33.3935Z" fill="#14CF93"/>
<path d="M70.8624 33.3935C70.8477 33.3787 70.8477 33.364 70.8477 33.3492V30.73C70.8477 30.7079 70.8477 30.6932 70.8624 30.6784C70.8771 30.6636 70.8918 30.6562 70.9134 30.6562H71.2941C71.323 30.6562 71.3377 30.671 71.3524 30.6932L71.9524 31.6892C71.9524 31.6965 71.9592 31.7039 71.9739 31.7113C71.9813 31.7261 71.996 31.7335 72.0181 31.7335H72.0255C72.0397 31.7335 72.0544 31.7261 72.0617 31.7113C72.0765 31.7039 72.0765 31.6892 72.0838 31.6892L72.6764 30.7005C72.6906 30.671 72.7127 30.6562 72.7348 30.6562H73.1223C73.1444 30.6562 73.1591 30.6636 73.1739 30.6784C73.1807 30.6932 73.188 30.7079 73.188 30.73V33.3492C73.188 33.364 73.1807 33.3787 73.1739 33.3935C73.1591 33.4083 73.1444 33.4157 73.1223 33.4157H72.7422C72.7201 33.4157 72.7053 33.4083 72.6906 33.4009C72.6764 33.3861 72.6691 33.364 72.6691 33.3492V31.7777C72.6691 31.7482 72.6617 31.7408 72.6544 31.7408C72.647 31.7408 72.6323 31.7482 72.6175 31.7704L72.2079 32.3606C72.1864 32.3901 72.1643 32.4122 72.1496 32.427C72.1275 32.4344 72.0986 32.4418 72.0617 32.4418H71.996C71.945 32.4418 71.9082 32.4344 71.8935 32.427C71.872 32.4196 71.8572 32.4048 71.8351 32.3754L71.4108 31.7704C71.3961 31.7482 71.3819 31.7408 71.3745 31.7408C71.3672 31.7408 71.3598 31.7482 71.3598 31.7704V33.3492C71.3598 33.364 71.3524 33.3787 71.3451 33.3935C71.3303 33.4083 71.3156 33.4157 71.2941 33.4157H70.9134C70.8918 33.4157 70.8771 33.4083 70.8624 33.3935Z" fill="#14CF93"/>
<path d="M75.459 33.3861C75.4449 33.3714 75.4375 33.3492 75.4375 33.3345V30.73C75.4375 30.7079 75.4449 30.6932 75.459 30.6784C75.4738 30.6636 75.4885 30.6562 75.5032 30.6562H77.2584C77.2805 30.6562 77.2952 30.6636 77.3099 30.6784C77.3241 30.6932 77.3314 30.7079 77.3314 30.73V31.0621C77.3314 31.0768 77.3241 31.0989 77.3099 31.1137C77.2952 31.1285 77.2805 31.1358 77.2584 31.1358H75.9933C75.9785 31.1358 75.9638 31.1432 75.9491 31.1506C75.9349 31.1653 75.9276 31.1801 75.9276 31.2022V31.7998C75.9276 31.822 75.9276 31.8368 75.9417 31.8441C75.9491 31.8589 75.9785 31.8589 76.0154 31.8589H76.9949C77.0097 31.8589 77.0244 31.8662 77.0391 31.881C77.0538 31.8884 77.0612 31.9032 77.0612 31.9253V32.2573C77.0612 32.2794 77.0538 32.2942 77.0391 32.3015C77.0244 32.3163 77.0097 32.3237 76.9949 32.3237H76.008C75.9785 32.3237 75.9565 32.3311 75.9417 32.3532C75.9276 32.3754 75.9276 32.3901 75.9276 32.4122V32.8328C75.9276 32.8549 75.9349 32.8844 75.9491 32.8992C75.9638 32.9213 75.9933 32.9287 76.0369 32.9287H77.2878C77.3026 32.9287 77.3241 32.9361 77.3388 32.9508C77.3535 32.9656 77.3609 32.9804 77.3609 33.0025V33.3345C77.3609 33.3492 77.3535 33.3714 77.3388 33.3861C77.3241 33.4009 77.3099 33.4083 77.2878 33.4083H75.5032C75.4885 33.4083 75.4738 33.4009 75.459 33.3861Z" fill="#14CF93"/>
<path d="M79.5416 33.3935C79.5269 33.3861 79.5195 33.3714 79.5195 33.3566V30.7079C79.5195 30.6932 79.5269 30.6784 79.5416 30.671C79.549 30.6636 79.5637 30.6562 79.5785 30.6562H79.9807C79.9954 30.6562 80.0096 30.6636 80.0243 30.6858L80.9534 32.2647C80.9823 32.3163 81.0044 32.3458 81.0192 32.3458C81.0413 32.3458 81.056 32.3163 81.056 32.2573L81.0413 30.7079C81.0413 30.6932 81.0486 30.6784 81.0628 30.671C81.0702 30.6636 81.0849 30.6562 81.107 30.6562H81.5166C81.5313 30.6562 81.546 30.6636 81.5528 30.671C81.5676 30.6784 81.5749 30.6932 81.5749 30.7079V33.3566C81.5749 33.3714 81.5676 33.3861 81.5528 33.3935C81.546 33.4009 81.5313 33.4083 81.5166 33.4083H81.2384C81.1874 33.4083 81.158 33.4083 81.1364 33.4009C81.1217 33.3935 81.0996 33.3714 81.0775 33.3345L80.09 31.7482C80.0759 31.7261 80.0611 31.7113 80.0538 31.7113C80.0317 31.7113 80.017 31.7335 80.017 31.7704L80.0243 33.3566C80.0243 33.3714 80.017 33.3861 80.0096 33.3935C79.9954 33.4009 79.9881 33.4083 79.9733 33.4083H79.5785C79.5637 33.4083 79.549 33.4009 79.5416 33.3935Z" fill="#14CF93"/>
<path d="M84.5575 33.4009C84.5501 33.3935 84.5428 33.3787 84.5428 33.364V31.2244C84.5428 31.2022 84.5354 31.1801 84.5133 31.158C84.4986 31.1432 84.4697 31.1285 84.4476 31.1285H83.7893C83.7745 31.1285 83.7672 31.1285 83.7598 31.1137C83.7457 31.1063 83.7383 31.0916 83.7383 31.0842V30.7005C83.7383 30.6858 83.7457 30.6784 83.7524 30.6636C83.7672 30.6563 83.7745 30.6562 83.7893 30.6562H85.8594C85.8736 30.6562 85.8883 30.6636 85.8957 30.671C85.903 30.6784 85.9104 30.6932 85.9104 30.7079V31.0768C85.9104 31.0916 85.903 31.1063 85.8957 31.1137C85.8883 31.1285 85.8736 31.1285 85.8594 31.1285H85.2085C85.179 31.1285 85.1569 31.1358 85.1422 31.158C85.1206 31.1727 85.1133 31.1949 85.1133 31.2244V33.364C85.1133 33.3787 85.1059 33.3935 85.0985 33.4009C85.0912 33.4083 85.0764 33.4157 85.0617 33.4157H84.5938C84.579 33.4157 84.5643 33.4083 84.5575 33.4009Z" fill="#14CF93"/>
</g>
</g>
<defs>
<clipPath id="clip0_11_339">
<rect width="124.072" height="33.7665" fill="white" transform="translate(0 0.742188)"/>
</clipPath>
<clipPath id="clip1_11_339">
<rect width="124.072" height="33.7665" fill="white" transform="translate(0 0.742188)"/>
</clipPath>
</defs>
</svg>
