<svg width="100" height="28" viewBox="0 0 100 28" fill="none" xmlns="http://www.w3.org/2000/svg">
<g clip-path="url(#clip0_11_309)">
<g clip-path="url(#clip1_11_309)">
<g clip-path="url(#clip2_11_309)">
<path d="M25.4068 17.5709C26.5175 17.5709 27.4703 17.171 28.2653 16.3712C29.072 15.5713 29.4696 14.6068 29.4696 13.4776C29.4696 12.3602 29.072 11.4016 28.2653 10.6017C27.4703 9.79011 26.5175 9.38431 25.4068 9.38431C24.2844 9.38431 23.3257 9.79011 22.5307 10.6017C21.7357 11.4016 21.3382 12.3602 21.3382 13.4776C21.3382 14.6068 21.7357 15.5713 22.5307 16.3712C23.3257 17.171 24.2844 17.5709 25.4068 17.5709ZM25.4068 21.6642C23.162 21.6642 21.2447 20.8643 19.6546 19.2647C18.0646 17.665 17.2695 15.736 17.2695 13.4776C17.2695 11.231 18.0646 9.30785 19.6546 7.70818C21.2447 6.10262 23.162 5.29688 25.4068 5.29688C27.6399 5.29688 29.5514 6.10262 31.1414 7.70818C32.7373 9.30785 33.5382 11.231 33.5382 13.4776C33.5382 15.736 32.7373 17.665 31.1414 19.2647C29.5514 20.8643 27.6399 21.6642 25.4068 21.6642Z" fill="#FEFEFE"/>
<path d="M34.4922 21.6642V17.5709H42.6236C43.7342 17.5709 44.6871 17.171 45.4823 16.3712C46.2888 15.5713 46.6922 14.6068 46.6922 13.4776C46.6922 12.3602 46.2888 11.4016 45.4823 10.6017C44.6871 9.79011 43.7342 9.38431 42.6236 9.38431H38.5549V15.9594H34.4922V5.29688H42.6236C44.8566 5.29688 46.7683 6.10262 48.3581 7.70818C49.9601 9.30785 50.7607 11.231 50.7607 13.4776C50.7607 15.736 49.9601 17.665 48.3581 19.2647C46.7683 20.8643 44.8566 21.6642 42.6236 21.6642H34.4922Z" fill="#FEFEFE"/>
<path d="M59.8873 15.5243V11.4309H68.0188V15.5243H59.8873ZM59.8873 21.6642C57.6423 21.6642 55.7252 20.8643 54.1349 19.2647C52.5451 17.665 51.75 15.736 51.75 13.4776C51.75 11.231 52.5451 9.30785 54.1349 7.70818C55.7252 6.10262 57.6423 5.29688 59.8873 5.29688H68.0188V9.3902H59.8873C58.7648 9.3902 57.8063 9.79011 57.0111 10.6017C56.216 11.4016 55.8189 12.3602 55.8189 13.4776C55.8189 14.6068 56.216 15.5713 57.0111 16.3712C57.8063 17.171 58.7648 17.5709 59.8873 17.5709H68.0188V21.6642H59.8873Z" fill="#FEFEFE"/>
<path d="M8.18607 21.6642C5.94134 21.6642 4.02393 20.8643 2.43974 19.2647C0.849708 17.665 0.0546875 15.736 0.0546875 13.4776C0.0546875 11.231 0.849708 9.30785 2.43974 7.70818C4.02393 6.10262 5.94134 5.29688 8.18607 5.29688H19.5794L16.3233 9.3902H8.18607C7.0637 9.3902 6.10503 9.79011 5.30999 10.6017C4.52082 11.4016 4.12331 12.3602 4.12331 13.4776C4.12331 14.6068 4.52082 15.5713 5.30999 16.3712C6.10503 17.171 7.0637 17.5709 8.18607 17.5709H16.3233L19.9419 21.6642H8.18607Z" fill="#FEFEFE"/>
<path d="M70.6953 15.523H74.7461V11.4297H70.6953V15.523Z" fill="white"/>
<path d="M98.9664 26.6818C95.3417 26.6818 92.2495 25.3938 89.6889 22.812C87.1229 20.236 85.8428 17.1249 85.8428 13.4786C85.8428 9.85578 87.1229 6.75055 89.6889 4.17458C92.2495 1.57511 95.3417 0.28125 98.9664 0.28125V6.87993C97.1539 6.87993 95.6048 7.53271 94.3247 8.83836C93.0447 10.1263 92.4017 11.6731 92.4017 13.4786C92.4017 15.3017 93.0447 16.8603 94.3247 18.1482C95.6048 19.4362 97.1539 20.0773 98.9664 20.0773V26.6818ZM72.7188 26.6818V20.0773C74.5137 20.0773 76.0509 19.4362 77.3369 18.1482C78.6346 16.8603 79.2835 15.3017 79.2835 13.4786C79.2835 11.6731 78.6346 10.1263 77.3369 8.83836C76.0509 7.53271 74.5137 6.87993 72.7188 6.87993V0.28125C76.3258 0.28125 79.4121 1.57511 81.9727 4.17458C84.5505 6.75055 85.8428 9.85578 85.8428 13.4786C85.8428 17.1249 84.5505 20.236 81.9727 22.812C79.4121 25.3938 76.3258 26.6818 72.7188 26.6818Z" fill="white"/>
<path d="M20.5986 26.1976C20.5927 26.1917 20.5869 26.1799 20.5869 26.1682C20.5869 26.1564 20.5927 26.1446 20.5986 26.127C20.6453 26.0035 20.7155 25.7976 20.8207 25.5154C20.9259 25.2272 21.0078 24.9861 21.0838 24.7802C21.0896 24.7626 21.0955 24.7508 21.1072 24.739C21.1189 24.7273 21.1364 24.7273 21.1598 24.7273H21.4696C21.5105 24.7273 21.5398 24.7449 21.5631 24.7802C21.7034 25.1801 21.7794 25.3977 21.797 25.4448C21.8086 25.4742 21.8145 25.486 21.8145 25.486C21.8262 25.486 21.832 25.4742 21.8379 25.4448C21.8613 25.2742 21.9022 25.0331 21.949 24.7214C21.9957 24.4097 22.0308 24.1862 22.0542 24.0451C22.0542 24.0274 22.0659 24.0157 22.0717 24.0098C22.0834 24.0039 22.0951 24.0039 22.1126 24.0039H22.4283C22.44 24.0039 22.4517 24.0098 22.4575 24.0274C22.4634 24.0392 22.4634 24.0568 22.4575 24.0745L22.0834 26.1682C22.0776 26.1976 22.06 26.2093 22.0249 26.2093H21.6917C21.6742 26.2093 21.6625 26.2093 21.6508 26.2034C21.6391 26.1976 21.6333 26.1858 21.6274 26.1682C21.5982 26.0858 21.5514 25.9388 21.4871 25.7447C21.4228 25.5448 21.3702 25.3919 21.341 25.286C21.3351 25.2742 21.3351 25.2684 21.3293 25.2684C21.3235 25.2684 21.3176 25.2742 21.3118 25.286L21.0195 26.1682C21.0136 26.1976 20.9961 26.2093 20.961 26.2093H20.622C20.6161 26.2093 20.6044 26.2093 20.5986 26.1976ZM20.4408 25.4565C20.4349 25.4565 20.4291 25.4507 20.4291 25.433L20.166 24.0745C20.1602 24.0686 20.1602 24.0627 20.1602 24.0509C20.1602 24.0157 20.1718 24.0039 20.2011 24.0039H20.5109C20.546 24.0039 20.5635 24.0157 20.5694 24.0451L20.7038 24.7861C20.7038 24.792 20.7038 24.7978 20.7038 24.8155C20.7038 24.8508 20.7038 24.8861 20.6921 24.9096C20.6687 24.9625 20.6337 25.0449 20.581 25.1625C20.5284 25.2801 20.4875 25.3742 20.4641 25.4389C20.4583 25.4507 20.4524 25.4565 20.4408 25.4565Z" fill="white"/>
<path d="M24.197 26.1878C24.1853 26.176 24.1794 26.1584 24.1794 26.1467V24.0706C24.1794 24.053 24.1853 24.0412 24.197 24.0294C24.2087 24.0177 24.2204 24.0118 24.2379 24.0118H25.6409C25.6584 24.0118 25.6701 24.0177 25.6818 24.0294C25.6935 24.0412 25.6994 24.053 25.6994 24.0706V24.3353C25.6994 24.347 25.6935 24.3646 25.6818 24.3764C25.6701 24.3882 25.6584 24.3941 25.6409 24.3941H24.6296C24.6121 24.3941 24.6004 24.4 24.5886 24.4058C24.577 24.4176 24.5711 24.4293 24.5711 24.447V24.9234C24.5711 24.941 24.577 24.9528 24.5828 24.9587C24.5945 24.9704 24.6121 24.9704 24.6471 24.9704H25.4246C25.4421 24.9704 25.4538 24.9763 25.4655 24.988C25.4772 24.9939 25.4831 25.0057 25.4831 25.0234V25.288C25.4831 25.3057 25.4772 25.3174 25.4655 25.3233C25.4538 25.335 25.4421 25.3409 25.4246 25.3409H24.6413C24.6121 25.3409 24.5945 25.3468 24.5886 25.3645C24.577 25.3821 24.5711 25.3938 24.5711 25.4115V25.7467C24.5711 25.7644 24.577 25.7879 24.5886 25.7997C24.6004 25.8173 24.6237 25.8232 24.6588 25.8232H25.6643C25.676 25.8232 25.6876 25.8291 25.6994 25.8408C25.7111 25.8526 25.7169 25.8644 25.7169 25.882V26.1467C25.7169 26.1584 25.7111 26.176 25.7052 26.1878C25.6935 26.1996 25.676 26.2055 25.6643 26.2055H24.2379C24.2204 26.2055 24.2087 26.1996 24.197 26.1878Z" fill="white"/>
<path d="M28.3242 25.8408C28.4002 25.8408 28.4645 25.8172 28.5171 25.7643C28.5697 25.7114 28.5931 25.6467 28.5931 25.5644C28.5931 25.4879 28.5697 25.4232 28.5171 25.3703C28.4645 25.3174 28.4002 25.2938 28.3242 25.2938H27.9091C27.8565 25.2938 27.8273 25.3174 27.8273 25.3703V25.7643C27.8273 25.8172 27.8565 25.8467 27.9091 25.8467L28.3242 25.8408ZM28.1312 24.9233C28.2014 24.9233 28.2657 24.8998 28.3183 24.8468C28.3709 24.788 28.3943 24.7292 28.3943 24.6528C28.3943 24.5763 28.3651 24.5116 28.3124 24.4587C28.2598 24.4058 28.1955 24.3822 28.1254 24.3822H27.8916C27.8506 24.3822 27.8273 24.4058 27.8273 24.4646V24.8468C27.8273 24.8998 27.8565 24.9233 27.9091 24.9233H28.1312ZM27.4648 26.1466V24.0764C27.4648 24.047 27.4707 24.0353 27.4765 24.0235C27.4882 24.0176 27.5057 24.0117 27.535 24.0117H28.1254C28.2365 24.0117 28.3417 24.0411 28.4411 24.0999C28.5346 24.1588 28.6165 24.2352 28.669 24.3293C28.7275 24.4293 28.7567 24.5352 28.7567 24.6528C28.7567 24.7822 28.7216 24.8939 28.6573 24.9939C28.7626 25.0586 28.8444 25.1409 28.9029 25.2409C28.9672 25.3409 28.9964 25.4468 28.9964 25.5644C28.9964 25.682 28.9672 25.7879 28.9087 25.8878C28.8561 25.9819 28.7801 26.0643 28.6808 26.1172C28.5814 26.176 28.4761 26.2054 28.3592 26.2054L27.5467 26.2113C27.4941 26.2113 27.4648 26.1878 27.4648 26.1466Z" fill="white"/>
<path d="M34.0375 25.7918C34.1602 25.7918 34.2771 25.7623 34.3765 25.6976C34.4817 25.6388 34.5694 25.5565 34.6279 25.4507C34.6922 25.3448 34.7214 25.233 34.7214 25.1096C34.7214 24.986 34.6922 24.8684 34.6279 24.7625C34.5694 24.6626 34.4817 24.5743 34.3765 24.5155C34.2771 24.4508 34.1602 24.4214 34.0375 24.4214H33.7861C33.7744 24.4214 33.7686 24.4273 33.7627 24.4332C33.751 24.4391 33.751 24.4508 33.751 24.4567V25.7918H34.0375ZM33.3711 26.1681C33.3535 26.1505 33.3477 26.1329 33.3477 26.1034V24.0862C33.3477 24.0685 33.3535 24.0509 33.3652 24.0333C33.3769 24.0215 33.3944 24.0156 33.412 24.0156H34.0375C34.2362 24.0156 34.4175 24.0627 34.5811 24.1627C34.7448 24.2568 34.8793 24.392 34.9728 24.5626C35.0722 24.7273 35.1189 24.9096 35.1189 25.1096C35.1189 25.3036 35.0722 25.4859 34.9728 25.6565C34.8793 25.8211 34.7448 25.9564 34.5811 26.0505C34.4175 26.1505 34.2362 26.1976 34.0375 26.1976H33.4354C33.412 26.1976 33.3886 26.1917 33.3711 26.1681Z" fill="white"/>
<path d="M36.8029 26.1878C36.7912 26.176 36.7854 26.1584 36.7854 26.1467V24.0706C36.7854 24.053 36.7912 24.0412 36.8029 24.0294C36.8146 24.0177 36.8263 24.0118 36.838 24.0118H38.241C38.2585 24.0118 38.2702 24.0177 38.2819 24.0294C38.2936 24.0412 38.2994 24.053 38.2994 24.0706V24.3353C38.2994 24.347 38.2936 24.3646 38.2819 24.3764C38.2702 24.3882 38.2585 24.3941 38.241 24.3941H37.2296C37.218 24.3941 37.2063 24.4 37.1946 24.4058C37.1829 24.4176 37.177 24.4293 37.177 24.447V24.9234C37.177 24.941 37.177 24.9528 37.1887 24.9587C37.1946 24.9704 37.218 24.9704 37.2472 24.9704H38.0305C38.0422 24.9704 38.0539 24.9763 38.0656 24.988C38.0773 24.9939 38.0831 25.0057 38.0831 25.0234V25.288C38.0831 25.3057 38.0773 25.3174 38.0656 25.3233C38.0539 25.335 38.0422 25.3409 38.0305 25.3409H37.2413C37.218 25.3409 37.2004 25.3468 37.1887 25.3645C37.177 25.3821 37.177 25.3938 37.177 25.4115V25.7467C37.177 25.7644 37.1829 25.7879 37.1946 25.7997C37.2063 25.8173 37.2296 25.8232 37.2647 25.8232H38.2643C38.276 25.8232 38.2936 25.8291 38.3053 25.8408C38.317 25.8526 38.3228 25.8644 38.3228 25.882V26.1467C38.3228 26.1584 38.317 26.176 38.3053 26.1878C38.2936 26.1996 38.2819 26.2055 38.2643 26.2055H36.838C36.8263 26.2055 36.8146 26.1996 36.8029 26.1878Z" fill="white"/>
<path d="M41.6992 24.0451C41.6992 24.0568 41.6992 24.0686 41.6934 24.0745L41.1263 26.1682C41.1205 26.1858 41.1147 26.1976 41.1029 26.2034C41.0913 26.2093 41.0796 26.2093 41.0562 26.2093H40.6704C40.6528 26.2093 40.6353 26.2093 40.6236 26.2034C40.6119 26.1976 40.6061 26.1858 40.6002 26.1682L40.0332 24.0745C40.0332 24.0686 40.0273 24.0568 40.0273 24.0451C40.0273 24.0157 40.0449 24.0039 40.0683 24.0039H40.3547C40.3781 24.0039 40.3956 24.0039 40.4073 24.0098C40.419 24.0157 40.4249 24.0274 40.4307 24.0451C40.4716 24.1921 40.5359 24.4391 40.6294 24.7743C40.7171 25.1154 40.7873 25.3742 40.8399 25.5565C40.8457 25.5977 40.8574 25.6154 40.8633 25.6154C40.8691 25.6154 40.8808 25.5977 40.8867 25.5565C40.9334 25.3742 41.0036 25.1154 41.0971 24.7743C41.1906 24.4391 41.2549 24.1921 41.2959 24.0451C41.3017 24.0274 41.3076 24.0157 41.3192 24.0098C41.3309 24.0039 41.3485 24.0039 41.3719 24.0039H41.6583C41.6875 24.0039 41.6992 24.0157 41.6992 24.0451Z" fill="white"/>
<path d="M43.4241 26.1878C43.4123 26.176 43.4065 26.1584 43.4065 26.1467V24.0706C43.4065 24.053 43.4123 24.0412 43.4241 24.0294C43.4357 24.0177 43.4474 24.0118 43.4649 24.0118H44.8679C44.8855 24.0118 44.8972 24.0177 44.9088 24.0294C44.9205 24.0412 44.9264 24.053 44.9264 24.0706V24.3353C44.9264 24.347 44.9205 24.3646 44.9088 24.3764C44.8972 24.3882 44.8855 24.3941 44.8679 24.3941H43.8566C43.8391 24.3941 43.8274 24.4 43.8157 24.4058C43.804 24.4176 43.7982 24.4293 43.7982 24.447V24.9234C43.7982 24.941 43.804 24.9528 43.8099 24.9587C43.8215 24.9704 43.8391 24.9704 43.8741 24.9704H44.6517C44.6692 24.9704 44.6809 24.9763 44.6925 24.988C44.7043 24.9939 44.7101 25.0057 44.7101 25.0234V25.288C44.7101 25.3057 44.7043 25.3174 44.6925 25.3233C44.6809 25.335 44.6692 25.3409 44.6517 25.3409H43.8683C43.8391 25.3409 43.8215 25.3468 43.8157 25.3645C43.804 25.3821 43.7982 25.3938 43.7982 25.4115V25.7467C43.7982 25.7644 43.804 25.7879 43.8157 25.7997C43.8274 25.8173 43.8508 25.8232 43.8858 25.8232H44.8913C44.903 25.8232 44.9147 25.8291 44.9264 25.8408C44.9381 25.8526 44.9439 25.8644 44.9439 25.882V26.1467C44.9439 26.1584 44.9381 26.176 44.9323 26.1878C44.9205 26.1996 44.903 26.2055 44.8913 26.2055H43.4649C43.4474 26.2055 43.4357 26.1996 43.4241 26.1878Z" fill="white"/>
<path d="M46.7657 26.1917C46.7481 26.1799 46.7422 26.1623 46.7422 26.1446V24.0686C46.7422 24.0509 46.7481 24.0392 46.7657 24.0216C46.7775 24.0098 46.7947 24.0039 46.8065 24.0039H47.1339C47.1515 24.0039 47.1633 24.0098 47.1805 24.0216C47.1923 24.0392 47.1982 24.0509 47.1982 24.0686V25.7271C47.1982 25.7447 47.204 25.7624 47.2158 25.7741C47.2276 25.7859 47.2448 25.7976 47.2566 25.7976H48.0168C48.034 25.7976 48.0517 25.8035 48.0635 25.8153C48.0752 25.8271 48.0811 25.8388 48.0811 25.8565V26.1446C48.0811 26.1623 48.0752 26.1799 48.0635 26.1917C48.0517 26.2034 48.034 26.2093 48.0168 26.2093H46.8065C46.7947 26.2093 46.7775 26.2034 46.7657 26.1917Z" fill="white"/>
<path d="M51.1702 25.5883C51.2227 25.5236 51.2639 25.4648 51.2929 25.4059C51.3341 25.306 51.3513 25.206 51.3513 25.106C51.3513 24.9707 51.3164 24.8413 51.2404 24.7178C51.1643 24.6002 51.0651 24.5061 50.9306 24.4473C50.8369 24.4061 50.7377 24.3885 50.6322 24.3885C50.539 24.3885 50.4511 24.4003 50.3692 24.4355C50.2877 24.4708 50.2116 24.5179 50.1414 24.5826L50.0889 24.6414C50.0305 24.7119 49.9893 24.7825 49.9603 24.8649C49.9308 24.9472 49.9191 25.0295 49.9191 25.1119C49.9191 25.2177 49.9426 25.3177 49.9834 25.4118C50.0305 25.5118 50.0948 25.5941 50.1763 25.6588C50.3108 25.7764 50.4688 25.8294 50.6381 25.8294C50.755 25.8294 50.8605 25.8059 50.9596 25.7588C51.0416 25.7118 51.1118 25.653 51.1702 25.5883ZM49.8081 25.8706C49.7031 25.7529 49.627 25.6235 49.5804 25.4765L49.5745 25.4648C49.5333 25.3471 49.5156 25.2295 49.5156 25.1119C49.5156 24.9825 49.5392 24.8531 49.5804 24.7296C49.627 24.6002 49.6913 24.4885 49.7787 24.3826C49.896 24.2591 50.0069 24.165 50.1296 24.1003C50.2465 24.0297 50.3927 23.9945 50.5738 23.9827H50.5856C50.7608 23.9709 50.9306 24.0062 51.0941 24.0768C51.1996 24.1239 51.3047 24.1944 51.3984 24.2826C51.4976 24.3708 51.5677 24.4591 51.6085 24.5473C51.7081 24.7178 51.7547 24.9061 51.7547 25.106C51.7547 25.2236 51.7371 25.3412 51.7022 25.453C51.6669 25.5647 51.6144 25.6706 51.5501 25.7647C51.4975 25.8411 51.4391 25.9058 51.3748 25.9587C51.3164 26.0176 51.2404 26.0646 51.1525 26.1175C50.9891 26.1999 50.8138 26.241 50.6322 26.241C50.4747 26.241 50.3225 26.2058 50.1763 26.1411C50.0305 26.0764 49.9073 25.9823 49.8081 25.8706Z" fill="white"/>
<path d="M54.2287 24.9998C54.3106 24.9998 54.3808 24.9704 54.4392 24.9174C54.4917 24.8586 54.5212 24.788 54.5212 24.7057C54.5212 24.6292 54.4917 24.5587 54.4392 24.4999C54.3808 24.4469 54.3106 24.4175 54.2287 24.4175H53.9131C53.8664 24.4175 53.837 24.4411 53.837 24.4822V24.9998H54.2287ZM53.463 26.1936C53.4512 26.1819 53.4453 26.1701 53.4453 26.1583V24.0705C53.4453 24.0529 53.4512 24.0353 53.463 24.0294C53.4747 24.0176 53.4861 24.0117 53.5037 24.0117H54.2287C54.3573 24.0117 54.4741 24.0411 54.5796 24.1058C54.6846 24.1646 54.7666 24.2529 54.8309 24.3587C54.8952 24.4646 54.9242 24.5822 54.9242 24.7057C54.9242 24.8351 54.8952 24.9527 54.8309 25.0586C54.7666 25.1645 54.6846 25.2468 54.5796 25.3115C54.4741 25.3703 54.3573 25.4056 54.2287 25.4056H53.9189C53.8954 25.4056 53.8723 25.4056 53.8605 25.4173C53.8488 25.4291 53.837 25.4409 53.837 25.4644V26.1583C53.837 26.1701 53.837 26.1819 53.8252 26.1936C53.8134 26.2054 53.8021 26.2113 53.7845 26.2113H53.5037C53.4861 26.2113 53.4747 26.2054 53.463 26.1936Z" fill="white"/>
<path d="M56.6368 26.1936C56.625 26.1819 56.625 26.1701 56.625 26.1583V24.0705C56.625 24.0529 56.625 24.0411 56.6368 24.0294C56.6485 24.0176 56.6603 24.0117 56.6775 24.0117H56.9818C57.0049 24.0117 57.0167 24.0235 57.0284 24.0411L57.508 24.8351C57.508 24.841 57.5134 24.8468 57.5252 24.8527C57.5311 24.8645 57.5428 24.8704 57.5605 24.8704H57.5664C57.5777 24.8704 57.5895 24.8645 57.5954 24.8527C57.6071 24.8468 57.6071 24.8351 57.613 24.8351L58.0867 24.047C58.098 24.0235 58.1156 24.0117 58.1333 24.0117H58.443C58.4607 24.0117 58.4724 24.0176 58.4842 24.0294C58.4896 24.0411 58.4955 24.0529 58.4955 24.0705V26.1583C58.4955 26.1701 58.4896 26.1819 58.4842 26.1936C58.4724 26.2054 58.4607 26.2113 58.443 26.2113H58.1392C58.1215 26.2113 58.1097 26.2054 58.098 26.1995C58.0867 26.1878 58.0808 26.1701 58.0808 26.1583V24.9056C58.0808 24.8822 58.0749 24.8763 58.069 24.8763C58.0631 24.8763 58.0513 24.8822 58.0396 24.8998L57.7122 25.3703C57.695 25.3938 57.6773 25.4114 57.6655 25.4232C57.6479 25.4291 57.6248 25.435 57.5954 25.435H57.5428C57.5021 25.435 57.4726 25.4291 57.4609 25.4232C57.4437 25.4173 57.4319 25.4056 57.4142 25.3821L57.0751 24.8998C57.0633 24.8822 57.052 24.8763 57.0461 24.8763C57.0402 24.8763 57.0343 24.8822 57.0343 24.8998V26.1583C57.0343 26.1701 57.0284 26.1819 57.0226 26.1936C57.0108 26.2054 56.999 26.2113 56.9818 26.2113H56.6775C56.6603 26.2113 56.6485 26.2054 56.6368 26.1936Z" fill="white"/>
<path d="M60.3141 26.1878C60.3028 26.176 60.2969 26.1583 60.2969 26.1466V24.0705C60.2969 24.0529 60.3028 24.0411 60.3141 24.0294C60.3259 24.0176 60.3376 24.0117 60.3494 24.0117H61.7522C61.7698 24.0117 61.7816 24.0176 61.7934 24.0294C61.8047 24.0411 61.8106 24.0529 61.8106 24.0705V24.3352C61.8106 24.3469 61.8047 24.3646 61.7934 24.3764C61.7816 24.3881 61.7698 24.394 61.7522 24.394H60.7411C60.7293 24.394 60.7175 24.3999 60.7058 24.4058C60.6944 24.4175 60.6886 24.4293 60.6886 24.4469V24.9233C60.6886 24.941 60.6886 24.9527 60.6999 24.9586C60.7058 24.9704 60.7293 24.9704 60.7587 24.9704H61.5416C61.5534 24.9704 61.5652 24.9762 61.577 24.988C61.5887 24.9939 61.5946 25.0056 61.5946 25.0233V25.2879C61.5946 25.3056 61.5887 25.3174 61.577 25.3232C61.5652 25.335 61.5534 25.3409 61.5416 25.3409H60.7529C60.7293 25.3409 60.7116 25.3468 60.6999 25.3644C60.6886 25.3821 60.6886 25.3938 60.6886 25.4114V25.7467C60.6886 25.7643 60.6944 25.7879 60.7058 25.7996C60.7175 25.8172 60.7411 25.8231 60.7759 25.8231H61.7757C61.7875 25.8231 61.8047 25.829 61.8165 25.8408C61.8283 25.8525 61.8341 25.8643 61.8341 25.8819V26.1466C61.8341 26.1583 61.8283 26.176 61.8165 26.1878C61.8047 26.1995 61.7934 26.2054 61.7757 26.2054H60.3494C60.3376 26.2054 60.3259 26.1995 60.3141 26.1878Z" fill="white"/>
<path d="M63.5763 26.1936C63.5645 26.1878 63.5586 26.176 63.5586 26.1642V24.0529C63.5586 24.0411 63.5645 24.0294 63.5763 24.0235C63.5821 24.0176 63.5939 24.0117 63.6057 24.0117H63.9272C63.9389 24.0117 63.9503 24.0176 63.962 24.0353L64.7046 25.2938C64.7277 25.335 64.7454 25.3585 64.7572 25.3585C64.7748 25.3585 64.7866 25.335 64.7866 25.2879L64.7748 24.0529C64.7748 24.0411 64.7807 24.0294 64.792 24.0235C64.7979 24.0176 64.8097 24.0117 64.8274 24.0117H65.1547C65.1665 24.0117 65.1783 24.0176 65.1837 24.0235C65.1955 24.0294 65.2014 24.0411 65.2014 24.0529V26.1642C65.2014 26.176 65.1955 26.1878 65.1837 26.1936C65.1783 26.1995 65.1665 26.2054 65.1547 26.2054H64.9324C64.8916 26.2054 64.8681 26.2054 64.8509 26.1995C64.8391 26.1936 64.8215 26.176 64.8038 26.1466L64.0146 24.8822C64.0032 24.8645 63.9915 24.8527 63.9856 24.8527C63.9679 24.8527 63.9562 24.8704 63.9562 24.8998L63.962 26.1642C63.962 26.176 63.9562 26.1878 63.9503 26.1936C63.939 26.1995 63.9331 26.2054 63.9213 26.2054H63.6057C63.5939 26.2054 63.5821 26.1995 63.5763 26.1936Z" fill="white"/>
<path d="M67.5805 26.1995C67.5746 26.1936 67.5688 26.1819 67.5688 26.1701V24.4646C67.5688 24.4469 67.5629 24.4293 67.5452 24.4117C67.5334 24.3999 67.5104 24.3881 67.4927 24.3881H66.9665C66.9548 24.3881 66.9489 24.3881 66.943 24.3764C66.9317 24.3705 66.9258 24.3587 66.9258 24.3528V24.047C66.9258 24.0353 66.9317 24.0294 66.9371 24.0176C66.9489 24.0117 66.9548 24.0117 66.9665 24.0117H68.6211C68.6324 24.0117 68.6442 24.0176 68.6501 24.0235C68.6559 24.0294 68.6618 24.0411 68.6618 24.0529V24.3469C68.6618 24.3587 68.6559 24.3705 68.6501 24.3764C68.6442 24.3881 68.6324 24.3881 68.6211 24.3881H68.1008C68.0773 24.3881 68.0596 24.394 68.0478 24.4117C68.0306 24.4234 68.0247 24.4411 68.0247 24.4646V26.1701C68.0247 26.1819 68.0189 26.1936 68.013 26.1995C68.0071 26.2054 67.9953 26.2113 67.9835 26.2113H67.6095C67.5977 26.2113 67.586 26.2054 67.5805 26.1995Z" fill="white"/>
</g>
</g>
</g>
<defs>
<clipPath id="clip0_11_309">
<rect width="99.1641" height="26.916" fill="white" transform="translate(0 0.167969)"/>
</clipPath>
<clipPath id="clip1_11_309">
<rect width="99.1641" height="26.916" fill="white" transform="translate(0 0.167969)"/>
</clipPath>
<clipPath id="clip2_11_309">
<rect width="99.1641" height="26.916" fill="white" transform="translate(0 0.167969)"/>
</clipPath>
</defs>
</svg>
