<svg width="363" height="114" viewBox="0 0 363 114" fill="none" xmlns="http://www.w3.org/2000/svg">
<path d="M69.2471 37.5216C72.554 37.5216 75.3279 39.9806 76.0752 43.2921C75.3567 41.808 73.9136 40.794 72.251 40.794C69.8713 40.7942 67.9424 42.8708 67.9424 45.4317C67.9426 47.9925 69.8715 50.0683 72.251 50.0685C73.5824 50.0685 74.7731 49.4186 75.5635 48.3976C74.4219 50.9115 72.0223 52.6436 69.2471 52.6436C67.9534 52.6436 66.7412 52.267 65.7002 51.6104C65.7472 51.5551 65.7763 51.5256 65.7783 51.5235L65.6436 51.5743C63.594 50.2536 62.2217 47.84 62.2217 45.0821C62.2218 40.9066 65.3671 37.5219 69.2471 37.5216Z" fill="white"/>
<path d="M49.4307 37.5216C52.7375 37.5217 55.5105 39.9807 56.2578 43.2921C55.5393 41.8081 54.097 40.7942 52.4346 40.794C50.0548 40.794 48.125 42.8707 48.125 45.4317C48.1252 47.9926 50.0549 50.0685 52.4346 50.0685C53.766 50.0683 54.9567 49.4187 55.7471 48.3976C54.6056 50.9116 52.2059 52.6436 49.4307 52.6436C45.5504 52.6436 42.4043 49.2579 42.4043 45.0821C42.4044 40.9064 45.5505 37.5216 49.4307 37.5216Z" fill="white"/>
<path fill-rule="evenodd" clip-rule="evenodd" d="M55.3164 1.17294C85.8668 1.17294 110.633 25.9389 110.633 56.4893C110.633 87.0398 85.8668 111.806 55.3164 111.806C24.766 111.806 0 87.0398 0 56.4893C0 25.9389 24.766 1.17294 55.3164 1.17294ZM55.0166 8.3624C53.4083 8.37247 51.8924 8.39582 51.6494 8.41708C51.4063 8.43725 50.6359 8.50566 49.9385 8.56943C49.2408 8.6321 47.8985 8.81385 46.958 8.97275C46.0175 9.13165 44.4519 9.45954 43.4805 9.70126C42.509 9.94298 41.142 10.3188 40.4443 10.5382C39.7466 10.7564 38.3547 11.2636 37.3535 11.6642C36.3523 12.0648 34.8363 12.7375 33.9863 13.1583C33.1363 13.5791 31.821 14.2856 31.0615 14.7276C30.3033 15.1696 29.0613 15.9446 28.3018 16.4493C27.5434 16.954 26.4246 17.7611 25.8174 18.2423C25.2103 18.7234 24.0471 19.7012 23.2324 20.4151C22.4177 21.1302 21.1415 22.3699 20.3975 23.17C19.6535 23.9701 18.6058 25.158 18.0703 25.8116C17.5349 26.464 16.6901 27.5719 16.1934 28.2735C15.6966 28.9741 14.8373 30.278 14.2842 31.171C13.7311 32.064 12.7932 33.775 12.1982 34.9757C11.6043 36.1765 10.8108 37.9519 10.4365 38.921C10.0623 39.89 9.57771 41.2752 9.36133 41.9981C9.14496 42.7211 8.79666 44.0183 8.58691 44.88C8.37717 45.7417 8.08457 47.1521 7.93555 48.0138C7.78654 48.8754 7.57862 50.2088 7.47266 50.9786C7.31922 52.0954 7.28015 53.1677 7.28125 56.294C7.28346 59.2985 7.32722 60.5625 7.4707 61.7218C7.57337 62.5521 7.76172 63.862 7.88867 64.6319C8.01566 65.4008 8.34332 66.9373 8.61816 68.045C8.89193 69.1528 9.36525 70.7887 9.66992 71.6817C9.97345 72.5746 10.5144 73.9968 10.8721 74.8429C11.2286 75.6888 11.8381 77.0242 12.2256 77.8087C12.613 78.593 13.2146 79.739 13.5635 80.3546C13.9112 80.9701 14.5703 82.0525 15.0273 82.7608C15.4843 83.4691 16.2617 84.6013 16.7529 85.2784C17.2453 85.9555 18.1251 87.0886 18.708 87.797C19.2908 88.5053 20.0672 89.41 20.4326 89.8106L21.0967 90.5382C21.1188 88.0226 21.2021 86.3112 21.2959 85.1104C21.3886 83.9097 21.5649 82.0463 21.6885 80.9698C21.811 79.8921 22.0842 77.9789 22.2939 76.7179C22.5048 75.4567 22.8976 73.4166 23.167 72.1856C23.4375 70.9547 23.8603 69.2173 24.1064 68.3243C24.3537 67.4313 24.8339 65.8461 25.1738 64.7999C25.5138 63.7537 26.1516 61.9654 26.5898 60.8272C27.0292 59.6891 27.7737 57.9 28.2451 56.8536C28.7154 55.8072 29.5424 54.057 30.0811 52.9649C31.0024 51.0991 31.0539 50.9533 30.958 50.5597C30.9006 50.3291 30.7691 49.5853 30.6631 48.9083C30.5328 48.0813 30.4682 47.0172 30.4648 45.6632C30.4626 44.5555 30.5278 43.1715 30.6084 42.586C30.689 42.0008 30.9022 40.9184 31.0811 40.1798C31.2599 39.4412 31.5834 38.3588 31.7998 37.7735C32.0162 37.1882 32.4167 36.2571 32.6904 35.7032C32.9653 35.1493 33.3905 34.3683 33.6367 33.9688C33.8829 33.5693 34.4163 32.7884 34.8203 32.2345C35.2243 31.6805 35.8603 30.887 36.2334 30.4718L36.9121 29.7159C36.336 28.4584 36.0276 27.6664 35.8564 27.1427C35.5639 26.2531 35.5446 26.0681 35.5391 24.2892C35.5346 23.2428 35.57 22.2472 35.6152 22.0782L35.6973 21.7706C37.3653 22.573 38.5206 23.0745 39.3408 23.4024C40.1611 23.7303 41.6083 24.2653 42.5576 24.5909L44.2842 25.1837C45.9709 24.6231 46.859 24.3603 47.3447 24.2384C47.8306 24.1164 48.7996 23.917 49.4971 23.795C50.1948 23.6742 51.5371 23.5219 52.4775 23.4581C53.418 23.3943 54.6599 23.369 55.2373 23.4015C55.8146 23.435 56.9076 23.5363 57.666 23.628C58.4255 23.7187 59.6674 23.9218 60.4258 24.0763C61.1853 24.2318 62.5512 24.6103 63.4619 24.9181C64.3725 25.2258 65.7257 25.7758 66.4697 26.1417L67.8223 26.8067C69.8319 26.357 70.8874 26.0494 71.4648 25.8311C72.0422 25.614 72.8125 25.2837 73.1768 25.0968C73.5409 24.911 74.1486 24.5643 74.5283 24.3282L75.2188 23.8966C75.221 25.3278 75.1472 26.1464 75.0566 26.6388C74.9661 27.1312 74.7735 27.8866 74.6289 28.3175C74.4854 28.7482 74.2294 29.3779 74.0605 29.7159C73.8917 30.0537 73.6008 30.5574 73.4131 30.8351C73.2254 31.1126 72.8968 31.5359 72.6826 31.7765C72.4687 32.0168 71.6191 32.911 71.6777 32.9308C81.622 35.669 83.5288 47.2857 77.1426 54.1046L78.4287 56.6788C79.893 56.5727 81.4233 57.2633 82.2324 58.505C83.7162 60.7822 85.9402 64.5518 86.2549 67.1202C87.4575 76.937 78.3415 84.1172 70.3066 87.4552C69.5173 87.7831 68.2437 88.2832 67.4775 88.5675C66.6186 88.8849 66.1331 89.0194 66.208 88.9171C66.2765 88.8253 66.755 88.2702 67.2705 87.6827C67.7861 87.0952 68.7147 85.9367 69.334 85.1075C69.9522 84.2783 70.7839 83.0706 71.1846 82.4249C71.5841 81.7793 72.1413 80.9004 72.6152 79.8517C74.9153 74.7615 74.961 68.5171 72.0977 64.7481C72.1006 64.7819 72.7441 72.2485 71.3945 76.1456C70.711 78.1191 69.488 80.0886 68.9824 80.8585C68.4768 81.6273 67.6422 82.787 67.1289 83.4327C66.6144 84.0785 65.5796 85.2616 64.8291 86.0616C64.0774 86.8617 62.8425 88.0862 62.083 88.7823C61.3236 89.4772 59.8336 90.7339 58.7705 91.5743C57.7085 92.4147 56.0675 93.6136 55.127 94.2403C54.1864 94.8659 52.7201 95.7861 51.8701 96.2852C51.0203 96.7842 50.2498 97.2405 50.1592 97.2999C50.0401 97.3771 50.1486 97.4095 50.5459 97.4151C50.8496 97.4185 51.5196 97.5253 52.0361 97.6495C52.5528 97.7738 53.3965 98.0865 53.9131 98.3438C54.615 98.6952 55.0456 99.01 55.624 99.5997C56.0622 100.046 56.5273 100.653 56.6973 101.002C58.0218 104.013 57.5279 105.663 57.5244 105.675L59.3838 105.355C59.7891 103.207 59.0321 99.9038 56.666 98.4112C56.6988 98.4112 58.5115 98.4138 60.0684 99.086C62.6585 100.204 63.3044 102.269 63.8145 104.657C64.6248 104.491 65.7008 104.243 66.5527 104.024C67.7062 103.725 69.2459 103.268 69.9746 103.008C70.7032 102.748 72.0453 102.223 72.9561 101.839C73.8668 101.456 75.208 100.839 75.9365 100.47C76.6651 100.099 77.7582 99.5096 78.3652 99.1583C78.9726 98.8067 80.3138 97.9491 81.3457 97.252C82.3779 96.5549 83.7934 95.5196 84.4922 94.9522C85.191 94.3848 86.3078 93.4298 86.9756 92.8311C87.6435 92.2313 89.0094 90.8894 90.0117 89.8487C91.014 88.8081 92.2952 87.3536 92.8594 86.6173C93.4245 85.881 94.3727 84.5494 94.9678 83.6563C95.5617 82.7633 96.3792 81.4672 96.7832 80.7745C97.1872 80.0818 97.8096 78.9232 98.165 78.2003C98.5216 77.4774 99.0649 76.307 99.374 75.5987C99.682 74.8904 100.117 73.808 100.34 73.1925C100.563 72.577 100.915 71.5199 101.124 70.8429C101.332 70.1658 101.722 68.7047 101.991 67.5968C102.261 66.4889 102.58 64.9524 102.699 64.1837C102.82 63.4137 102.996 62.0551 103.09 61.1622C103.185 60.2691 103.292 58.6332 103.331 57.5255C103.373 56.3115 103.349 54.7775 103.269 53.6651C103.196 52.6503 103.062 51.1393 102.971 50.3077C102.879 49.4762 102.682 48.1664 102.53 47.3976C102.379 46.6276 102.028 45.0923 101.75 43.9845C101.473 42.8766 101.073 41.4662 100.862 40.8507C100.651 40.2351 100.23 39.1018 99.9277 38.3331C99.6252 37.5631 98.9927 36.1283 98.5225 35.1436C98.0511 34.1588 97.1942 32.5716 96.6191 31.6183C96.0429 30.6649 95.1031 29.2203 94.5303 28.4102C93.9574 27.599 93.0443 26.3906 92.5 25.7247C91.9569 25.0577 90.6892 23.6788 89.6846 22.6593C88.68 21.6398 87.2877 20.3285 86.5889 19.7433C85.8901 19.1591 84.9222 18.3773 84.4365 18.0069C83.9508 17.6354 83.1059 17.0306 82.5596 16.6602C82.0133 16.2911 81.07 15.6868 80.4629 15.3175C79.8557 14.9493 78.7877 14.34 78.0889 13.964C77.3901 13.5879 76.1234 12.9684 75.2734 12.588C74.4235 12.2064 73.0088 11.6275 72.1279 11.3018C71.247 10.9762 69.9308 10.5351 69.2021 10.3214C68.4735 10.1076 67.1065 9.75263 66.166 9.53329C65.2254 9.31396 63.5864 9.00718 62.5234 8.85165C61.4615 8.69611 59.9952 8.51882 59.2666 8.45615C58.5379 8.39461 56.626 8.35233 55.0166 8.3624ZM38.9541 58.3175C38.4078 58.2257 38.0106 58.1939 38.0713 58.2442C38.1329 58.2961 38.6041 58.5283 39.1201 58.7608C39.6368 58.9936 40.6046 59.4863 41.2725 59.8556C41.9402 60.2237 42.8843 60.7748 43.3701 61.0792C43.8559 61.3847 44.7006 61.9772 45.2471 62.3946C45.7935 62.8131 46.6374 63.5509 47.123 64.0343C47.6088 64.5188 48.3448 65.3672 48.7588 65.92C49.1716 66.474 49.7375 67.4042 50.0156 67.9893C50.2938 68.5735 50.6465 69.5302 50.7988 70.1153C51.0328 71.0126 51.0751 71.4302 51.0762 72.8009C51.0784 74.062 51.0241 74.6856 50.832 75.5987C50.6962 76.2444 50.4076 77.2517 50.1924 77.837C49.9771 78.4211 49.6133 79.2772 49.3848 79.7393C49.1551 80.2004 48.6734 81.0321 48.3135 81.586C47.9524 82.14 47.2611 83.0966 46.7754 83.712C46.2896 84.3275 45.344 85.4354 44.6729 86.1739C44.0017 86.9125 42.787 88.1277 41.9756 88.8741C41.1642 89.6205 40.0523 90.6074 39.5059 91.0685C38.9594 91.5284 37.9905 92.3024 37.3535 92.7892C36.7166 93.2748 35.4497 94.1799 34.5391 94.8009C33.6285 95.4219 32.2495 96.316 31.4756 96.7872L30.0674 97.6446L32.7168 99.3233C35.0693 97.9066 36.3992 97.0583 37.1885 96.5245C37.9778 95.9907 39.319 95.0241 40.1689 94.3751C41.019 93.726 42.2857 92.7001 42.9834 92.0958C43.6822 91.4915 45.1509 90.0889 46.2471 88.9776C47.3433 87.8664 48.676 86.4037 49.207 85.7267C49.7391 85.0496 50.5555 83.9165 51.0225 83.2081C51.4883 82.4998 52.1945 81.267 52.5908 80.4669C52.9881 79.667 53.4938 78.4585 53.7158 77.7813C53.9377 77.1043 54.2089 76.1213 54.3193 75.5987C54.4717 74.8803 54.5176 74.1952 54.5088 72.8009C54.5 71.2065 54.4603 70.809 54.2197 69.8917C54.0674 69.3065 53.7711 68.4505 53.5625 67.9893C53.3539 67.5273 52.9593 66.7972 52.6855 66.3663C52.4118 65.9355 51.8683 65.207 51.4775 64.7481C51.0868 64.2894 50.3199 63.5372 49.7734 63.0772C49.227 62.6173 48.3575 61.959 47.8408 61.6143C47.3252 61.2686 46.38 60.7279 45.7432 60.4112C45.1062 60.0946 44.0875 59.6627 43.4805 59.4513C42.8733 59.2398 41.83 58.9356 41.1621 58.7745C40.4942 58.6145 39.5005 58.4081 38.9541 58.3175ZM69.2471 34.419C63.775 34.4193 59.339 39.1933 59.3389 45.0821C59.3389 48.4053 60.7516 51.3736 62.9658 53.3292C62.9652 53.5172 62.9575 53.7658 62.9316 54.1046C62.8413 55.2871 62.7026 56.9817 62.6211 57.2364L62.4727 57.7003C61.9087 56.6866 61.6044 56.2109 61.4316 55.9893C61.2591 55.7689 60.9605 55.4534 60.7686 55.2892C60.576 55.1252 60.2767 54.9061 60.1035 54.8028C59.9305 54.6997 59.7044 54.5959 59.6016 54.5724C59.4334 54.5339 59.421 54.5516 59.4756 54.756C59.5083 54.8805 59.7954 55.4972 60.1133 56.1261C60.4311 56.7549 60.7898 57.5278 60.9111 57.8438C61.0324 58.1598 61.1942 58.6697 61.2715 58.9757C61.3487 59.2814 61.419 59.7186 61.4277 59.9474C61.4364 60.176 61.4563 60.3604 61.5254 60.3604C61.6197 60.4097 61.744 60.293 61.9102 60.2149C62.0764 60.136 62.3907 59.9267 62.6074 59.7501C62.8241 59.5725 63.189 59.178 63.418 58.8712C63.6479 58.5641 63.9866 58.1441 64.165 57.5929C64.5171 56.5051 64.5784 56.0127 64.6523 54.5284C66.0261 55.304 67.5882 55.7451 69.2471 55.7452C70.629 55.7452 71.9446 55.4397 73.1396 54.8897L75.752 59.6397C75.0025 60.7352 74.9074 62.2244 75.6426 63.4444L82.5361 74.8849C82.7147 75.1809 83.1402 75.1636 83.2783 74.8468C83.832 73.5743 84.8747 70.8025 84.7969 68.1358C84.7118 65.2235 82.6222 61.6967 81.0645 59.4581C80.2421 58.2764 78.7705 57.8778 77.458 58.3351L74.96 53.7921C77.4974 51.8611 79.1562 48.681 79.1562 45.0821C79.1561 39.1931 74.7193 34.419 69.2471 34.419ZM49.4307 34.419C43.9584 34.4191 39.5216 39.1931 39.5215 45.0821C39.5215 50.9712 43.9583 55.7452 49.4307 55.7452C54.9029 55.7451 59.3388 50.9712 59.3389 45.0821C59.3388 39.1932 54.9028 34.4192 49.4307 34.419Z" fill="white"/>
<path d="M156.399 52.0073C152.285 52.0073 148.613 51.0839 145.381 49.2372C142.191 47.3905 139.673 44.7463 137.826 41.3047C136.022 37.8212 135.119 33.6241 135.119 28.7135C135.119 23.9708 135.98 19.8576 137.7 16.3741C139.463 12.8485 141.961 10.1204 145.192 8.18975C148.424 6.25909 152.222 5.29376 156.587 5.29376C162.589 5.29376 167.248 6.76274 170.564 9.7007C173.921 12.6387 176.083 16.8567 177.048 22.3549L165.653 22.7956C165.191 20.1095 164.184 18.0109 162.631 16.5C161.078 14.989 159.064 14.2335 156.587 14.2335C154.405 14.2335 152.537 14.8421 150.984 16.0593C149.473 17.2764 148.319 18.9763 147.522 21.1587C146.766 23.3412 146.388 25.8595 146.388 28.7135C146.388 31.6514 146.787 34.1907 147.585 36.3312C148.424 38.4717 149.599 40.1296 151.11 41.3047C152.621 42.4799 154.426 43.0675 156.524 43.0675C159.253 43.0675 161.351 42.2701 162.82 40.6752C164.331 39.0383 165.296 36.7929 165.716 33.9389L177.174 34.3795C176.545 38.115 175.348 41.3047 173.586 43.9489C171.823 46.5511 169.514 48.5447 166.66 49.9297C163.806 51.3148 160.386 52.0073 156.399 52.0073ZM184.844 51V6.30106H195.798V27.3284L191.076 23.9918H215.629L210.908 27.3284V6.30106H221.862V51H210.908V29.7208L215.629 32.9945H191.076L195.798 29.7208V51H184.844ZM231.762 51V6.30106H263.869V15.2408H242.716V24.1177H263.114V33.0575H242.716V42.0602H264.373V51H231.762ZM292.972 52.0073C288.859 52.0073 285.186 51.0839 281.954 49.2372C278.765 47.3905 276.246 44.7463 274.4 41.3047C272.595 37.8212 271.693 33.6241 271.693 28.7135C271.693 23.9708 272.553 19.8576 274.274 16.3741C276.037 12.8485 278.534 10.1204 281.766 8.18975C284.997 6.25909 288.796 5.29376 293.161 5.29376C299.162 5.29376 303.821 6.76274 307.137 9.7007C310.495 12.6387 312.656 16.8567 313.621 22.3549L302.226 22.7956C301.765 20.1095 300.757 18.0109 299.204 16.5C297.652 14.989 295.637 14.2335 293.161 14.2335C290.978 14.2335 289.11 14.8421 287.558 16.0593C286.047 17.2764 284.892 18.9763 284.095 21.1587C283.339 23.3412 282.962 25.8595 282.962 28.7135C282.962 31.6514 283.36 34.1907 284.158 36.3312C284.997 38.4717 286.172 40.1296 287.683 41.3047C289.194 42.4799 290.999 43.0675 293.098 43.0675C295.826 43.0675 297.924 42.2701 299.393 40.6752C300.904 39.0383 301.87 36.7929 302.289 33.9389L313.747 34.3795C313.118 38.115 311.922 41.3047 310.159 43.9489C308.396 46.5511 306.088 48.5447 303.234 49.9297C300.38 51.3148 296.959 52.0073 292.972 52.0073ZM322.155 51V6.30106H333.109V24.8732L348.03 6.30106H360.621L344.567 26.1323L361.565 51H349.289L337.39 33.3722L333.109 38.4717V51H322.155ZM136.819 108V63.3011H168.927V72.2408H147.774V81.1177H168.171V90.0575H147.774V99.0602H169.43V108H136.819ZM178.45 108V63.3011H198.911C202.226 63.3011 205.101 63.8467 207.536 64.9379C210.012 66.0292 211.921 67.5821 213.265 69.5967C214.608 71.5693 215.279 73.8987 215.279 76.5848C215.279 78.6834 214.859 80.5301 214.02 82.125C213.181 83.7199 212.005 85.042 210.494 86.0912C209.026 87.0985 207.263 87.7701 205.206 88.1058L205.017 87.4763C208.081 87.4763 210.39 88.1268 211.942 89.4279C213.537 90.729 214.419 92.6806 214.587 95.2828L215.657 108H204.451L203.758 97.1086C203.632 95.4297 203.129 94.1916 202.247 93.3941C201.408 92.5967 199.918 92.198 197.777 92.198H189.404V108H178.45ZM189.404 83.2582H197.211C199.435 83.2582 201.135 82.7755 202.31 81.8102C203.485 80.8449 204.073 79.4808 204.073 77.718C204.073 75.9133 203.464 74.5492 202.247 73.6259C201.072 72.7025 199.351 72.2408 197.085 72.2408H189.404V83.2582ZM224.999 108V63.3011H245.46C248.775 63.3011 251.65 63.8467 254.085 64.9379C256.561 66.0292 258.471 67.5821 259.814 69.5967C261.157 71.5693 261.828 73.8987 261.828 76.5848C261.828 78.6834 261.409 80.5301 260.569 82.125C259.73 83.7199 258.555 85.042 257.044 86.0912C255.575 87.0985 253.812 87.7701 251.755 88.1058L251.566 87.4763C254.63 87.4763 256.939 88.1268 258.492 89.4279C260.086 90.729 260.968 92.6806 261.136 95.2828L262.206 108H251L250.307 97.1086C250.181 95.4297 249.678 94.1916 248.796 93.3941C247.957 92.5967 246.467 92.198 244.326 92.198H235.953V108H224.999ZM235.953 83.2582H243.76C245.984 83.2582 247.684 82.7755 248.859 81.8102C250.034 80.8449 250.622 79.4808 250.622 77.718C250.622 75.9133 250.013 74.5492 248.796 73.6259C247.621 72.7025 245.9 72.2408 243.634 72.2408H235.953V83.2582Z" fill="white"/>
</svg>
