<svg width="52" height="52" viewBox="0 0 52 52" fill="none" xmlns="http://www.w3.org/2000/svg">
<path d="M20.7801 34.7477C20.5515 33.8616 20.0896 33.0529 19.4425 32.4058C18.7954 31.7587 17.9867 31.2968 17.1006 31.0682L1.39163 27.0174C1.12362 26.9414 0.887741 26.78 0.719777 26.5577C0.551814 26.3354 0.460937 26.0644 0.460937 25.7858C0.460937 25.5072 0.551814 25.2362 0.719777 25.014C0.887741 24.7917 1.12362 24.6303 1.39163 24.5542L17.1006 20.5008C17.9864 20.2725 18.7949 19.811 19.442 19.1643C20.0891 18.5177 20.5511 17.7096 20.7801 16.8239L24.8309 1.11493C24.9062 0.845859 25.0675 0.608812 25.2901 0.439951C25.5127 0.27109 25.7844 0.179688 26.0638 0.179688C26.3432 0.179688 26.615 0.27109 26.8376 0.439951C27.0602 0.608812 27.2214 0.845859 27.2967 1.11493L31.3449 16.8239C31.5735 17.71 32.0354 18.5187 32.6825 19.1658C33.3296 19.8129 34.1383 20.2748 35.0245 20.5034L50.7334 24.5516C51.0036 24.6261 51.2418 24.7872 51.4116 25.0102C51.5813 25.2331 51.6733 25.5056 51.6733 25.7858C51.6733 26.066 51.5813 26.3385 51.4116 26.5615C51.2418 26.7844 51.0036 26.9455 50.7334 27.02L35.0245 31.0682C34.1383 31.2968 33.3296 31.7587 32.6825 32.4058C32.0354 33.0529 31.5735 33.8616 31.3449 34.7477L27.2942 50.4567C27.2189 50.7258 27.0576 50.9628 26.835 51.1317C26.6124 51.3006 26.3407 51.392 26.0613 51.392C25.7818 51.392 25.5101 51.3006 25.2875 51.1317C25.0649 50.9628 24.9036 50.7258 24.8283 50.4567L20.7801 34.7477Z" fill="white"/>
</svg>
