<svg width="21" height="21" viewBox="0 0 21 21" fill="none" xmlns="http://www.w3.org/2000/svg">
<path fill-rule="evenodd" clip-rule="evenodd" d="M9.34445 0.648642C9.92817 0.66532 10.3844 0.709554 10.7624 0.78738C11.068 0.854066 11.5348 0.97663 11.8072 1.07113C12.0741 1.16007 12.5247 1.34914 12.8027 1.48812C13.0862 1.62707 13.5198 1.87707 13.7645 2.04386C14.009 2.20505 14.3871 2.49992 14.6039 2.68895C14.8263 2.88353 15.1712 3.22837 15.3713 3.45631C15.5769 3.6841 15.86 4.05077 16.0046 4.26209C16.1436 4.47334 16.3944 4.90161 16.5557 5.20739C16.7113 5.51316 16.9166 5.99157 17.0111 6.26399C17.1 6.53641 17.2336 7.02558 17.3003 7.34802C17.4059 7.83169 17.4281 8.1042 17.4281 8.96035C17.4281 9.8052 17.4058 10.0887 17.3058 10.5445C17.2446 10.8502 17.1173 11.3286 17.0283 11.6011C16.9394 11.8735 16.7503 12.3296 16.6113 12.602C16.4724 12.8743 16.2942 13.202 16.0775 13.5465L18.3177 15.7985C20.263 17.7493 20.5747 18.0888 20.6637 18.3279C20.7304 18.5057 20.7695 18.7504 20.7695 18.9949C20.7695 19.3007 20.7358 19.4511 20.619 19.6902C20.5412 19.8569 20.38 20.0792 20.2577 20.1848C20.141 20.2903 19.9357 20.4293 19.7968 20.4905C19.6245 20.5683 19.4241 20.6017 19.1572 20.6073C18.907 20.6072 18.6681 20.5681 18.4902 20.5014C18.2511 20.4124 17.9114 20.1011 13.7088 15.9153L13.4862 16.054C13.3638 16.1319 13.0475 16.3046 12.7753 16.4436C12.5084 16.577 12.0741 16.7606 11.8072 16.8496C11.5349 16.944 11.0573 17.0713 10.735 17.138C10.2513 17.2436 9.97855 17.2658 9.12263 17.2658C8.27759 17.2658 7.99361 17.2436 7.53773 17.1435C7.23209 17.0824 6.75434 16.955 6.48191 16.866C6.2095 16.7771 5.79199 16.6105 5.56405 16.4937C5.33621 16.3826 4.99744 16.1989 4.81393 16.0877C4.63046 15.9765 4.29096 15.7483 4.06302 15.5704C3.83512 15.398 3.45165 15.0592 3.20708 14.8203C2.96808 14.5757 2.6401 14.2086 2.48439 13.9917C2.32324 13.775 2.10652 13.4526 1.99528 13.2691C1.88414 13.0857 1.70595 12.7522 1.59475 12.5354C1.48359 12.3131 1.32237 11.9126 1.2334 11.6457C1.13891 11.3734 1.01089 10.8951 0.94417 10.5727C0.838544 10.089 0.816408 9.81644 0.816406 8.96035C0.816406 8.10422 0.838549 7.83167 0.94417 7.34802C1.01088 7.0256 1.14445 6.53642 1.2334 6.26399C1.32789 5.99163 1.54997 5.47455 1.73897 5.1243C1.92238 4.77416 2.17849 4.33514 2.31195 4.15157C2.44535 3.96814 2.69527 3.65646 2.87317 3.45631C3.04552 3.25617 3.38516 2.92287 3.6131 2.71716C3.84657 2.5115 4.21309 2.22213 4.42437 2.07756C4.63563 1.93857 5.04159 1.69929 5.31401 1.55475C5.58625 1.4103 5.9752 1.23284 6.17544 1.16048C6.37555 1.08266 6.7983 0.954573 7.12073 0.876736C7.443 0.798947 7.87652 0.710198 8.09347 0.682347C8.31025 0.648996 8.87195 0.637533 9.34445 0.648642ZM9.26137 3.14513C8.81106 3.13402 8.43857 3.15617 8.12168 3.21176C7.86039 3.2618 7.40983 3.3836 7.12073 3.48923C6.83164 3.59487 6.39802 3.79532 6.15898 3.94542C5.92004 4.0899 5.55893 4.34536 5.3532 4.51213C5.15306 4.67892 4.84668 4.9853 4.67989 5.18544C4.50758 5.39116 4.25218 5.75228 4.1077 5.99121C3.95762 6.2358 3.75716 6.66936 3.65151 6.95846C3.54588 7.24755 3.41859 7.74826 3.36855 8.07071C3.29628 8.48765 3.2789 8.81569 3.30114 9.2104C3.31782 9.51616 3.37346 9.94979 3.41793 10.1722C3.46797 10.389 3.5907 10.7894 3.68522 11.0618C3.78531 11.3286 4.00758 11.7677 4.17433 12.04C4.37444 12.3624 4.66917 12.7237 5.0138 13.0684C5.35842 13.413 5.71979 13.7077 6.04219 13.9079C6.3146 14.0747 6.75967 14.2969 7.03765 14.397C7.31002 14.5026 7.72676 14.6252 7.95473 14.6752C8.22714 14.7364 8.63339 14.7701 9.12263 14.7701C9.6117 14.7701 10.0174 14.7364 10.2898 14.6752C10.5176 14.6252 10.9344 14.5026 11.2068 14.397C11.4848 14.2969 11.9299 14.0747 12.2023 13.9079C12.5247 13.7077 12.886 13.4131 13.2307 13.0684C13.5753 12.7237 13.87 12.3625 14.0702 12.04C14.2369 11.7676 14.4592 11.3225 14.5593 11.0446C14.6649 10.7721 14.7875 10.3553 14.8375 10.1275C14.8986 9.8551 14.9324 9.4494 14.9324 8.96035C14.9324 8.47112 14.8987 8.06487 14.8375 7.79245C14.7875 7.56447 14.6649 7.14772 14.5593 6.87537C14.4592 6.59739 14.2369 6.14683 14.0702 5.87442C13.87 5.55202 13.5809 5.19615 13.2307 4.85153C12.886 4.50134 12.5302 4.21217 12.2078 4.01205C11.9354 3.84531 11.4909 3.62297 11.2241 3.52843C10.9518 3.4284 10.5514 3.30651 10.3289 3.25644C10.1121 3.2064 9.62829 3.15626 9.26137 3.14513Z" fill="white"/>
</svg>
