<svg width="14" height="13" viewBox="0 0 14 13" fill="none" xmlns="http://www.w3.org/2000/svg">
<path d="M5.19503 8.77494C5.13658 8.55 5.01849 8.34472 4.85305 8.18046C4.6876 8.01619 4.48084 7.89895 4.25429 7.84092L0.237952 6.81264C0.16943 6.79333 0.109121 6.75236 0.0661779 6.69593C0.0232345 6.63951 0 6.57072 0 6.5C0 6.42928 0.0232345 6.36049 0.0661779 6.30407C0.109121 6.24764 0.16943 6.20667 0.237952 6.18736L4.25429 5.15843C4.48076 5.10046 4.68747 4.98331 4.85291 4.81917C5.01835 4.65502 5.13648 4.44988 5.19503 4.22506L6.2307 0.237406C6.24995 0.169105 6.29118 0.108931 6.3481 0.0660667C6.40501 0.0232022 6.47448 0 6.54592 0C6.61736 0 6.68683 0.0232022 6.74374 0.0660667C6.80066 0.108931 6.84189 0.169105 6.86114 0.237406L7.89615 4.22506C7.9546 4.45 8.07269 4.65528 8.23814 4.81954C8.40358 4.98381 8.61034 5.10105 8.8369 5.15908L12.8532 6.18671C12.9223 6.20562 12.9832 6.24651 13.0266 6.3031C13.07 6.3597 13.0935 6.42887 13.0935 6.5C13.0935 6.57113 13.07 6.6403 13.0266 6.69689C12.9832 6.75349 12.9223 6.79438 12.8532 6.81329L8.8369 7.84092C8.61034 7.89895 8.40358 8.01619 8.23814 8.18046C8.07269 8.34472 7.9546 8.55 7.89615 8.77494L6.86048 12.7626C6.84123 12.8309 6.8 12.8911 6.74309 12.9339C6.68618 12.9768 6.6167 13 6.54527 13C6.47383 13 6.40436 12.9768 6.34744 12.9339C6.29053 12.8911 6.2493 12.8309 6.23005 12.7626L5.19503 8.77494Z" fill="#14CF93"/>
</svg>
