<svg width="25" height="25" viewBox="0 0 25 25" fill="none" xmlns="http://www.w3.org/2000/svg">
<path fill-rule="evenodd" clip-rule="evenodd" d="M17.8207 22.106C18.1184 22.3167 18.5019 22.3694 18.8439 22.24C19.1859 22.1097 19.4373 21.8176 19.5131 21.4636C20.3163 17.6888 22.2648 8.13435 22.9959 4.70059C23.0513 4.44179 22.9589 4.17282 22.7556 3.99997C22.5522 3.82713 22.2703 3.77722 22.0189 3.87057C18.1433 5.30508 6.20789 9.78329 1.32946 11.5884C1.01982 11.703 0.818325 12.0007 0.828493 12.3269C0.839584 12.6542 1.05957 12.9379 1.3766 13.0331C3.56441 13.6875 6.43619 14.5979 6.43619 14.5979C6.43619 14.5979 7.77827 18.651 8.47796 20.7122C8.56577 20.971 8.76819 21.1743 9.03531 21.2446C9.30151 21.3139 9.58619 21.2409 9.78491 21.0532C10.9089 19.9921 12.6465 18.3515 12.6465 18.3515C12.6465 18.3515 15.9481 20.7722 17.8207 22.106ZM7.64425 14.0859L9.19614 19.2046L9.5409 15.9631C9.5409 15.9631 15.5368 10.5551 18.9549 7.47255C19.0547 7.38197 19.0685 7.23038 18.9854 7.12409C18.9031 7.0178 18.7515 6.99284 18.6378 7.06494C14.6763 9.59473 7.64425 14.0859 7.64425 14.0859Z" fill="white"/>
</svg>
